<?xml version="1.0" standalone="no"?>
<!DOCTYPE svg PUBLIC "-//W3C//DTD SVG 1.1//EN" "http://www.w3.org/Graphics/SVG/1.1/DTD/svg11.dtd" >
<svg xmlns="http://www.w3.org/2000/svg">
<metadata></metadata>
<defs>
<font id="telegramarender" horiz-adv-x="1366" >
<font-face units-per-em="2048" ascent="1593" descent="-455" />
<missing-glyph horiz-adv-x="500" />
<glyph horiz-adv-x="0" />
<glyph horiz-adv-x="682" />
<glyph unicode=" " />
<glyph unicode="!" d="M569 57v113q0 25 16.5 41t41.5 16h112q25 0 41.5 -16t16.5 -41v-113q0 -25 -16.5 -41t-41.5 -16h-112q-25 0 -41.5 16t-16.5 41zM569 512v1024q0 25 16.5 41t41.5 16h112q25 0 41.5 -16t16.5 -41v-1024q0 -25 -16.5 -41t-41.5 -16h-112q-25 0 -41.5 16t-16.5 41z" />
<glyph unicode="&#x22;" d="M342 967v569q0 25 16 41t39 16h115q25 0 41 -16t16 -41v-569q0 -24 -16.5 -41t-40.5 -17h-115q-23 0 -39 17t-16 41zM797 967v569q0 25 16 41t41 16h113q25 0 41 -16t16 -41v-569q0 -24 -16.5 -41t-40.5 -17h-113q-24 0 -40.5 17t-16.5 41z" />
<glyph unicode="#" d="M115 512v115q0 23 16 39t39 16h172v457h-172q-23 0 -39 16t-16 39v115q0 23 16 40t39 17h172v170q0 25 16 41t39 16h115q25 0 41 -16t16 -41v-170h228v170q0 25 16 41t41 16h113q25 0 41 -16t16 -41v-170h170q24 0 40.5 -16.5t16.5 -40.5v-115q0 -23 -16 -39t-41 -16 h-170v-457h170q25 0 41 -16t16 -39v-115q0 -25 -16 -41t-41 -16h-170v-170q0 -25 -16 -41.5t-41 -16.5h-113q-25 0 -41 16.5t-16 41.5v170h-228v-170q0 -25 -16 -41.5t-41 -16.5h-115q-23 0 -39 16.5t-16 41.5v170h-172q-23 0 -39 16t-16 41zM569 682h228v457h-228v-457z " />
<glyph unicode="$" d="M115 285v112q0 25 16 41.5t39 16.5h399v227h-114q-141 0 -240.5 100.5t-99.5 241.5t99.5 241.5t240.5 100.5h114v170q0 25 16.5 41t41.5 16h112q25 0 41.5 -16t16.5 -41v-170h397q24 0 40.5 -16.5t16.5 -40.5v-115q0 -23 -16 -39t-41 -16h-397v-230h112q142 0 242 -99.5 t100 -240.5t-100 -241.5t-242 -100.5h-112v-170q0 -25 -16.5 -41t-41.5 -16h-112q-25 0 -41.5 16t-16.5 41v170h-399q-23 0 -39 16.5t-16 41.5zM342 1024q0 -46 33.5 -80.5t79.5 -34.5h114v230h-114q-46 0 -79.5 -34.5t-33.5 -80.5zM797 455h112q46 0 80.5 34t34.5 80 t-34.5 79.5t-80.5 33.5h-112v-227z" />
<glyph unicode="%" d="M112 363.5q0 22.5 17 39.5l944 945q19 17 41 17t39 -17l80 -80q17 -17 17 -40t-17 -40l-944 -944q-17 -17 -40 -17t-40 17l-80 80q-17 17 -17 39.5zM115 1251q0 141 99.5 241.5t240.5 100.5t241.5 -100.5t100.5 -241.5t-100.5 -241.5t-241.5 -100.5t-240.5 100.5 t-99.5 241.5zM342 1251q0 -47 33 -79.5t80 -32.5t80.5 32.5t33.5 79.5t-33.5 81t-80.5 34t-80 -34t-33 -81zM569 342q0 141 99.5 240.5t240.5 99.5q142 0 242 -99.5t100 -240.5q0 -142 -99.5 -242t-242.5 -100q-141 0 -240.5 100t-99.5 242zM797 342q0 -46 33.5 -80.5 t78.5 -34.5q46 0 80.5 34.5t34.5 80.5t-34.5 79.5t-80.5 33.5t-79 -33.5t-33 -79.5z" />
<glyph unicode="&#x26;" d="M115 455q0 102 40 191t113 151q-74 63 -113.5 151.5t-39.5 190.5q0 187 133.5 320.5t320.5 133.5q145 0 247 -102.5t102 -247.5q0 -142 -107 -252l-197 -194l347 -346q63 101 63 231v172q0 23 16 39t41 16h113q25 0 41 -16t16 -39v-174q0 -222 -125 -395l109 -109 q17 -19 17 -41t-17 -39l-80 -80q-17 -17 -39 -17t-39 17l-110 109q-173 -125 -398 -125q-188 2 -321 135t-133 320zM342 455q0 -94 66.5 -161t160.5 -67q126 0 232 64l-355 356q-48 -31 -76 -82t-28 -110zM342 1139q0 -59 28 -110.5t76 -82.5l209 209q37 40 37 88 q0 51 -36 87t-87 36q-94 0 -160.5 -66.5t-66.5 -160.5z" />
<glyph unicode="'" d="M569 967v569q0 25 16.5 41t41.5 16h112q25 0 41.5 -16t16.5 -41v-569q0 -24 -17 -41t-41 -17h-112q-24 0 -41 17t-17 41z" />
<glyph unicode="(" d="M342 455v684q0 187 133.5 320.5t321.5 133.5h397q25 0 41 -16t16 -41v-115q0 -23 -16 -39t-41 -16h-397q-94 0 -161 -66.5t-67 -160.5v-684q0 -94 67 -161t161 -67h397q25 0 41 -16t16 -41v-113q0 -25 -16 -41t-41 -16h-397q-187 0 -321 134t-134 321z" />
<glyph unicode=")" d="M115 57v113q0 25 16 41t39 16h399q94 0 161 67t67 161v684q0 94 -67 160.5t-161 66.5h-399q-23 0 -39 16t-16 39v115q0 25 16 41t39 16h399q188 0 321.5 -133.5t133.5 -320.5v-684q0 -187 -134 -321t-321 -134h-399q-23 0 -39 16t-16 41z" />
<glyph unicode="*" d="M112 363.5q0 22.5 17 39.5l281 279h-240q-23 0 -39 17t-16 40v115q0 23 16 39t39 16h240l-279 279q-17 17 -17 40t17 40l80 80q17 17 40 17t40 -17l391 -392l391 392q19 17 41 17t39 -17l80 -80q17 -17 17 -40t-17 -40l-277 -279h238q25 0 41 -16t16 -39v-115 q0 -24 -16.5 -40.5t-40.5 -16.5h-238l279 -279q17 -17 17 -39.5t-17 -39.5l-80 -80q-17 -17 -39 -17t-39 17l-395 393l-393 -393q-17 -17 -40 -17t-40 17l-80 80q-17 17 -17 39.5z" />
<glyph unicode="+" d="M115 739v115q0 23 16 39t39 16h399v400q0 23 16.5 40t41.5 17h112q25 0 41.5 -17t16.5 -40v-400h397q25 0 41 -16t16 -39v-115q0 -24 -16.5 -40.5t-40.5 -16.5h-397v-397q0 -25 -16.5 -41.5t-41.5 -16.5h-112q-25 0 -41.5 16.5t-16.5 41.5v397h-399q-23 0 -39 17t-16 40z " />
<glyph unicode="," d="M342 57v340q0 25 16 41.5t39 16.5h342q25 0 41.5 -16.5t16.5 -41.5v-512q0 -141 -100.5 -240.5t-241.5 -99.5h-58q-23 0 -39 16.5t-16 41.5v112q0 25 16 41.5t39 16.5h58q46 0 80 33t34 79v115h-172q-23 0 -39 16t-16 41z" />
<glyph unicode="-" d="M115 512v115q0 23 16 39t39 16h1024q25 0 41 -16t16 -39v-115q0 -25 -16 -41t-41 -16h-1024q-23 0 -39 16t-16 41z" />
<glyph unicode="." d="M342 57v340q0 25 16 41.5t39 16.5h342q25 0 41.5 -16.5t16.5 -41.5v-340q0 -25 -16.5 -41t-41.5 -16h-342q-23 0 -39 16t-16 41z" />
<glyph unicode="/" d="M115 57v308q0 24 16 43l893 890v238q0 25 16 41t41 16h113q25 0 41 -16t16 -41v-303q0 -25 -18 -43l-891 -891v-242q0 -24 -16.5 -40.5t-40.5 -16.5h-115q-23 0 -39 16t-16 41z" />
<glyph unicode="0" d="M115 455v684q0 187 133.5 320.5t320.5 133.5h228q187 0 320.5 -133.5t133.5 -320.5v-684q0 -188 -133.5 -321.5t-320.5 -133.5h-228q-187 0 -320.5 133.5t-133.5 321.5zM342 616l645 646q-31 48 -81 76t-109 28h-228q-94 0 -160.5 -66.5t-66.5 -160.5v-523zM377 332 q31 -48 82 -76.5t110 -28.5h228q94 0 160.5 67t66.5 161v524z" />
<glyph unicode="1" d="M112 1045.5q0 22.5 17 39.5l440 439v10q0 26 16.5 42.5t41.5 16.5h112q25 0 41.5 -16t16.5 -41v-1309h397q25 0 41 -16t16 -41v-113q0 -25 -16 -41t-41 -16h-1024q-23 0 -39 16t-16 41v113q0 25 16 41t39 16h399v979l-280 -280q-17 -17 -40 -17t-40 17l-80 80 q-17 17 -17 39.5z" />
<glyph unicode="2" d="M115 57v113q0 25 16 41t39 16h39l745 748q70 70 70 164t-66.5 160.5t-160.5 66.5h-228q-94 0 -160.5 -66.5t-66.5 -160.5q0 -25 -17 -41.5t-40 -16.5h-115q-23 0 -39 16.5t-16 41.5q0 187 133.5 320.5t320.5 133.5h228q187 0 320.5 -133.5t133.5 -320.5 q0 -93 -35.5 -177.5t-97.5 -146.5l-590 -588h666q25 0 41 -16t16 -41v-113q0 -25 -16 -41t-41 -16h-1024q-23 0 -39 16t-16 41z" />
<glyph unicode="3" d="M115 455q0 25 16 41t39 16h115q24 0 40.5 -16.5t16.5 -40.5q0 -94 66.5 -161t160.5 -67h228q94 0 160.5 67t66.5 161t-66.5 160.5t-160.5 66.5h-400q-23 0 -39 17t-16 40v115q0 23 16 39t39 16h15l452 457h-694q-23 0 -39 16t-16 39v115q0 25 16 41t39 16h1024 q25 0 41 -16t16 -41v-115q0 -23 -16 -39t-41 -16h-10l-455 -457h68q187 0 320.5 -133.5t133.5 -320.5q0 -188 -133.5 -321.5t-320.5 -133.5h-228q-187 0 -320.5 133.5t-133.5 321.5z" />
<glyph unicode="4" d="M115 512v295q0 26 16 45l666 664v20q0 25 16 41t41 16h113q25 0 41 -16t16 -41v-854h170q25 0 41 -16t16 -39v-115q0 -25 -16 -41t-41 -16h-170v-398q0 -25 -16 -41t-41 -16h-113q-25 0 -41 16t-16 41v398h-627q-25 0 -40 16t-15 41zM342 682h455v518l-455 -457v-61z M1251 512v115v-115z" />
<glyph unicode="5" d="M115 455q0 25 16 41t39 16h115q24 0 40.5 -16.5t16.5 -40.5q0 -94 66.5 -161t160.5 -67h228q94 0 160.5 67t66.5 161t-66.5 160.5t-160.5 66.5h-627q-23 0 -39 17t-16 40v797q0 25 16 41t39 16h1024q25 0 41 -16t16 -41v-115q0 -23 -16 -39t-41 -16h-852v-457h455 q187 0 320.5 -133.5t133.5 -320.5q0 -188 -133.5 -321.5t-320.5 -133.5h-228q-187 0 -320.5 133.5t-133.5 321.5z" />
<glyph unicode="6" d="M115 455v684q0 187 133.5 320.5t320.5 133.5h228q187 0 320.5 -133.5t133.5 -320.5q0 -25 -16 -41.5t-41 -16.5h-113q-25 0 -41 16.5t-16 41.5q0 94 -66.5 160.5t-160.5 66.5h-228q-94 0 -160.5 -66.5t-66.5 -160.5v-230h455q187 0 320.5 -133.5t133.5 -320.5 q0 -188 -133.5 -321.5t-320.5 -133.5h-228q-187 0 -320.5 133.5t-133.5 321.5zM342 455q0 -94 66.5 -161t160.5 -67h228q94 0 160.5 67t66.5 161t-66.5 160.5t-160.5 66.5h-455v-227z" />
<glyph unicode="7" d="M115 1421v115q0 25 16 41t39 16h1024q26 0 41.5 -16t15.5 -41v-305q0 -25 -18 -43l-436 -443v-688q0 -25 -16.5 -41t-41.5 -16h-112q-25 0 -41.5 16t-16.5 41v760q0 22 17 39l438 438v72h-854q-23 0 -39 16t-16 39z" />
<glyph unicode="8" d="M115 455q0 102 40 191t113 151q-74 63 -113.5 151.5t-39.5 190.5q0 187 133.5 320.5t320.5 133.5h228q187 0 320.5 -133.5t133.5 -320.5q0 -102 -40 -190t-113 -152q72 -63 112.5 -152t40.5 -190q0 -188 -133.5 -321.5t-320.5 -133.5h-228q-187 0 -320.5 133.5 t-133.5 321.5zM342 455q0 -94 66.5 -161t160.5 -67h228q94 0 160.5 67t66.5 161t-66.5 160.5t-160.5 66.5h-228q-94 0 -160.5 -66.5t-66.5 -160.5zM342 1139q0 -95 66.5 -162.5t158.5 -67.5h230q94 0 160.5 67.5t66.5 162.5q0 94 -66.5 160.5t-160.5 66.5h-228 q-94 0 -160.5 -66.5t-66.5 -160.5z" />
<glyph unicode="9" d="M115 455q0 25 16 41t39 16h115q24 0 40.5 -16.5t16.5 -40.5q0 -94 66.5 -161t160.5 -67h228q94 0 160.5 67t66.5 161v227h-455q-123 0 -227.5 61t-165.5 166.5t-61 229.5q0 187 133.5 320.5t320.5 133.5h228q187 0 320.5 -133.5t133.5 -320.5v-684q0 -188 -133.5 -321.5 t-320.5 -133.5h-228q-187 0 -320.5 133.5t-133.5 321.5zM342 1139q0 -95 66.5 -162.5t160.5 -67.5h455v230q0 94 -66.5 160.5t-160.5 66.5h-228q-94 0 -160.5 -66.5t-66.5 -160.5z" />
<glyph unicode=":" d="M342 57v340q0 25 16 41.5t39 16.5h342q25 0 41.5 -16.5t16.5 -41.5v-340q0 -25 -16.5 -41t-41.5 -16h-342q-23 0 -39 16t-16 41zM342 739v342q0 24 16 41t39 17h342q24 0 41 -17t17 -41v-342q0 -23 -16.5 -40t-41.5 -17h-342q-23 0 -39 17t-16 40z" />
<glyph unicode=";" d="M342 57v340q0 25 16 41.5t39 16.5h342q25 0 41.5 -16.5t16.5 -41.5v-512q0 -141 -100.5 -240.5t-241.5 -99.5h-58q-23 0 -39 16.5t-16 41.5v112q0 25 16 41.5t39 16.5h58q46 0 80 33t34 79v115h-172q-23 0 -39 16t-16 41zM342 739v342q0 24 16 41t39 17h342q24 0 41 -17 t17 -41v-342q0 -23 -16.5 -40t-41.5 -17h-342q-23 0 -39 17t-16 40z" />
<glyph unicode="&#x3c;" d="M322 797q0 24 12 39l743 741q17 17 39 17t39 -17l80 -80q17 -17 17 -40t-17 -40l-621 -620l621 -621q17 -19 17 -41t-17 -39l-80 -80q-17 -17 -39 -17t-39 17l-743 742q-12 12 -12 39z" />
<glyph unicode="=" d="M115 285v112q0 25 16 41.5t39 16.5h1024q25 0 41 -16.5t16 -41.5v-112q0 -25 -16 -41.5t-41 -16.5h-1024q-23 0 -39 16.5t-16 41.5zM115 739v115q0 23 16 39t39 16h1024q25 0 41 -16t16 -39v-115q0 -24 -16.5 -40.5t-40.5 -16.5h-1024q-23 0 -39 17t-16 40z" />
<glyph unicode="&#x3e;" d="M339 135q0 22 17 41l623 621l-623 620q-17 17 -17 40t17 40l80 80q17 17 40 17t40 -17l741 -741q15 -15 15 -39q0 -27 -15 -39l-741 -742q-17 -17 -40 -17t-40 17l-80 80q-17 17 -17 39z" />
<glyph unicode="?" d="M115 1139q0 187 133.5 320.5t320.5 133.5h228q187 0 320.5 -133.5t133.5 -320.5q0 -92 -36 -177t-97 -147l-373 -371q-17 -17 -38.5 -17t-38.5 17l-82 82q-19 17 -19 39t19 41l368 369q70 70 70 164t-66.5 160.5t-160.5 66.5h-228q-94 0 -160.5 -66.5t-66.5 -160.5 q0 -25 -17 -41.5t-40 -16.5h-115q-23 0 -39 16.5t-16 41.5zM569 57v113q0 25 16.5 41t41.5 16h112q25 0 41.5 -16t16.5 -41v-113q0 -25 -16.5 -41t-41.5 -16h-112q-25 0 -41.5 16t-16.5 41z" />
<glyph unicode="@" d="M115 342v227q0 141 99.5 240.5t240.5 99.5h284q25 0 41.5 -16t16.5 -39v-512q0 -46 33.5 -80.5t78.5 -34.5q46 0 80.5 34.5t34.5 80.5v797q0 94 -66.5 160.5t-160.5 66.5h-228q-94 0 -160.5 -66.5t-66.5 -160.5q0 -25 -17 -41.5t-40 -16.5h-115q-23 0 -39 16.5t-16 41.5 q0 187 133.5 320.5t320.5 133.5h228q187 0 320.5 -133.5t133.5 -320.5v-797q0 -142 -99.5 -242t-242.5 -100q-131 0 -227 86q-96 -86 -227 -86q-141 0 -240.5 100t-99.5 242zM342 342q0 -46 33.5 -80.5t79.5 -34.5t80 34.5t34 80.5v340h-114q-46 0 -79.5 -33.5t-33.5 -79.5 v-227z" />
<glyph unicode="A" d="M115 57v1082q0 187 133.5 320.5t320.5 133.5h228q187 0 320.5 -133.5t133.5 -320.5v-1082q0 -25 -16 -41t-41 -16h-113q-25 0 -41 16t-16 41v625h-682v-625q0 -24 -16.5 -40.5t-40.5 -16.5h-115q-23 0 -39 16t-16 41zM342 909h682v230q0 94 -66.5 160.5t-160.5 66.5h-228 q-94 0 -160.5 -66.5t-66.5 -160.5v-230z" />
<glyph unicode="B" d="M115 57v1479q0 25 16 41t39 16h627q187 0 320.5 -133.5t133.5 -320.5q0 -102 -40 -190t-113 -152q72 -63 112.5 -152t40.5 -190q0 -188 -133.5 -321.5t-320.5 -133.5h-627q-23 0 -39 16t-16 41zM342 227h455q94 0 160.5 67t66.5 161t-66.5 160.5t-160.5 66.5h-455v-455z M342 909h455q94 0 160.5 67.5t66.5 162.5q0 94 -66.5 160.5t-160.5 66.5h-455v-457z" />
<glyph unicode="C" d="M115 455v684q0 187 133.5 320.5t320.5 133.5h228q187 0 320.5 -133.5t133.5 -320.5q0 -25 -16 -41.5t-41 -16.5h-113q-25 0 -41 16.5t-16 41.5q0 94 -66.5 160.5t-160.5 66.5h-228q-94 0 -160.5 -66.5t-66.5 -160.5v-684q0 -94 66.5 -161t160.5 -67h228q94 0 160.5 67 t66.5 161q0 25 16 41t41 16h113q25 0 41 -16t16 -41q0 -188 -133.5 -321.5t-320.5 -133.5h-228q-187 0 -320.5 133.5t-133.5 321.5z" />
<glyph unicode="D" d="M115 57v1479q0 25 16 41t39 16h627q187 0 320.5 -133.5t133.5 -320.5v-684q0 -188 -133.5 -321.5t-320.5 -133.5h-627q-23 0 -39 16t-16 41zM342 227h455q94 0 160.5 67t66.5 161v684q0 94 -66.5 160.5t-160.5 66.5h-455v-1139z" />
<glyph unicode="E" d="M115 57v1479q0 25 16 41t39 16h1024q25 0 41 -16t16 -41v-115q0 -23 -16 -39t-41 -16h-852v-457h625q25 0 41 -16t16 -39v-115q0 -24 -16.5 -40.5t-40.5 -16.5h-625v-455h852q25 0 41 -16t16 -41v-113q0 -25 -16 -41t-41 -16h-1024q-23 0 -39 16t-16 41z" />
<glyph unicode="F" d="M115 57v1479q0 25 16 41t39 16h1024q25 0 41 -16t16 -41v-115q0 -23 -16 -39t-41 -16h-852v-457h625q25 0 41 -16t16 -39v-115q0 -24 -16.5 -40.5t-40.5 -16.5h-625v-625q0 -24 -16.5 -40.5t-40.5 -16.5h-115q-23 0 -39 16t-16 41z" />
<glyph unicode="G" d="M115 455v684q0 187 133.5 320.5t320.5 133.5h228q187 0 320.5 -133.5t133.5 -320.5q0 -25 -16 -41.5t-41 -16.5h-113q-25 0 -41 16.5t-16 41.5q0 94 -66.5 160.5t-160.5 66.5h-228q-94 0 -160.5 -66.5t-66.5 -160.5v-684q0 -94 66.5 -161t160.5 -67h228q94 0 160.5 67 t66.5 161v227h-397q-25 0 -41.5 17t-16.5 40v115q0 23 16.5 39t41.5 16h567q25 0 41 -16t16 -39v-399q0 -188 -133.5 -321.5t-320.5 -133.5h-228q-187 0 -320.5 133.5t-133.5 321.5z" />
<glyph unicode="H" d="M115 57v1479q0 25 16 41t39 16h115q24 0 40.5 -16.5t16.5 -40.5v-627h682v627q0 25 16 41t41 16h113q25 0 41 -16t16 -41v-1479q0 -25 -16 -41t-41 -16h-113q-25 0 -41 16t-16 41v625h-682v-625q0 -24 -16.5 -40.5t-40.5 -16.5h-115q-23 0 -39 16t-16 41z" />
<glyph unicode="I" d="M115 57v113q0 25 16 41t39 16h399v1139h-172q-23 0 -39 16t-16 39v115q0 25 16 41t39 16h570q25 0 41 -16t16 -41v-115q0 -23 -16 -39t-41 -16h-170v-1139h397q25 0 41 -16t16 -41v-113q0 -25 -16 -41t-41 -16h-1024q-23 0 -39 16t-16 41z" />
<glyph unicode="J" d="M115 455q0 25 16 41t39 16h115q24 0 40.5 -16.5t16.5 -40.5q0 -94 66.5 -161t160.5 -67h228q94 0 160.5 67t66.5 161v1081q0 25 16 41t41 16h113q25 0 41 -16t16 -41v-1081q0 -188 -133.5 -321.5t-320.5 -133.5h-228q-187 0 -320.5 133.5t-133.5 321.5z" />
<glyph unicode="K" d="M115 57v1479q0 25 16 41t39 16h115q24 0 40.5 -16.5t16.5 -40.5v-627h66l665 668q19 17 41 17t39 -17l80 -80q17 -17 17 -40t-17 -40l-621 -620l621 -621q17 -19 17 -41t-17 -39l-80 -80q-17 -17 -39 -17t-41 17l-665 666h-66v-625q0 -24 -16.5 -40.5t-40.5 -16.5h-115 q-23 0 -39 16t-16 41z" />
<glyph unicode="L" d="M115 57v1479q0 25 16 41t39 16h115q24 0 40.5 -16.5t16.5 -40.5v-1309h852q25 0 41 -16t16 -41v-113q0 -25 -16 -41t-41 -16h-1024q-23 0 -39 16t-16 41z" />
<glyph unicode="M" d="M115 57v1479q0 25 16 41t39 16h115q24 0 40.5 -16.5t16.5 -40.5v-12l340 -340l342 340v10q0 26 16 42.5t41 16.5h113q25 0 41 -16t16 -41v-1479q0 -25 -16 -41t-41 -16h-113q-25 0 -41 16t-16 41v1149l-227 -227v-240q0 -23 -16.5 -40t-41.5 -17h-112q-25 0 -41.5 17 t-16.5 40v240l-227 227v-1149q0 -24 -16.5 -40.5t-40.5 -16.5h-115q-23 0 -39 16t-16 41z" />
<glyph unicode="N" d="M115 57v1479q0 25 16 41t39 16h115q24 0 40.5 -16.5t16.5 -40.5v-240l682 -682v922q0 25 16 41t41 16h113q25 0 41 -16t16 -41v-1479q0 -25 -16 -41t-41 -16h-113q-25 0 -41 16t-16 41v238l-682 684v-922q0 -24 -16.5 -40.5t-40.5 -16.5h-115q-23 0 -39 16t-16 41z" />
<glyph unicode="O" d="M115 455v684q0 187 133.5 320.5t320.5 133.5h228q187 0 320.5 -133.5t133.5 -320.5v-684q0 -188 -133.5 -321.5t-320.5 -133.5h-228q-187 0 -320.5 133.5t-133.5 321.5zM342 455q0 -94 66.5 -161t160.5 -67h228q94 0 160.5 67t66.5 161v684q0 94 -66.5 160.5t-160.5 66.5 h-228q-94 0 -160.5 -66.5t-66.5 -160.5v-684z" />
<glyph unicode="P" d="M115 57v1479q0 25 16 41t39 16h627q187 0 320.5 -133.5t133.5 -320.5q0 -124 -61 -229.5t-165.5 -166.5t-227.5 -61h-455v-625q0 -24 -16.5 -40.5t-40.5 -16.5h-115q-23 0 -39 16t-16 41zM342 909h455q94 0 160.5 67.5t66.5 162.5q0 94 -66.5 160.5t-160.5 66.5h-455 v-457z" />
<glyph unicode="Q" d="M115 455v684q0 187 133.5 320.5t320.5 133.5h228q187 0 320.5 -133.5t133.5 -320.5v-459q0 -222 -125 -395l109 -109q17 -19 17 -41t-17 -39l-80 -80q-17 -17 -39 -17t-39 17l-110 109q-173 -125 -398 -125q-188 2 -321 135t-133 320zM342 455q0 -94 66.5 -161t160.5 -67 q126 0 232 64l-213 215q-17 17 -17 39t17 41l80 78q17 19 38.5 19t38.5 -19l216 -213q63 101 63 231v457q0 94 -66.5 160.5t-160.5 66.5h-228q-94 0 -160.5 -66.5t-66.5 -160.5v-684z" />
<glyph unicode="R" d="M115 57v1479q0 25 16 41t39 16h627q187 0 320.5 -133.5t133.5 -320.5q0 -124 -61 -229.5t-165.5 -166.5t-227.5 -61h-72l508 -506q17 -19 17 -41t-17 -39l-80 -80q-17 -17 -39 -17t-41 17l-665 666h-66v-625q0 -24 -16.5 -40.5t-40.5 -16.5h-115q-23 0 -39 16t-16 41z M342 909h455q94 0 160.5 67.5t66.5 162.5q0 94 -66.5 160.5t-160.5 66.5h-455v-457z" />
<glyph unicode="S" d="M115 455q0 25 16 41t39 16h115q24 0 40.5 -16.5t16.5 -40.5q0 -94 66.5 -161t160.5 -67h228q94 0 160.5 67t66.5 161t-66.5 160.5t-160.5 66.5h-228q-123 0 -227.5 61t-165.5 166.5t-61 229.5q0 187 133.5 320.5t320.5 133.5h228q187 0 320.5 -133.5t133.5 -320.5 q0 -25 -16 -41.5t-41 -16.5h-113q-25 0 -41 16.5t-16 41.5q0 94 -66.5 160.5t-160.5 66.5h-228q-94 0 -160.5 -66.5t-66.5 -160.5q0 -95 66.5 -162.5t160.5 -67.5h228q187 0 320.5 -133.5t133.5 -320.5q0 -188 -133.5 -321.5t-320.5 -133.5h-228q-187 0 -320.5 133.5 t-133.5 321.5z" />
<glyph unicode="T" d="M115 1421v115q0 25 16 41t39 16h1024q25 0 41 -16t16 -41v-115q0 -23 -16 -39t-41 -16h-397v-1309q0 -25 -16.5 -41t-41.5 -16h-112q-25 0 -41.5 16t-16.5 41v1309h-399q-23 0 -39 16t-16 39z" />
<glyph unicode="U" d="M115 455v1081q0 25 16 41t39 16h115q24 0 40.5 -16.5t16.5 -40.5v-1081q0 -94 66.5 -161t160.5 -67h228q94 0 160.5 67t66.5 161v1081q0 25 16 41t41 16h113q25 0 41 -16t16 -41v-1081q0 -188 -133.5 -321.5t-320.5 -133.5h-228q-187 0 -320.5 133.5t-133.5 321.5z" />
<glyph unicode="V" d="M115 551v985q0 25 16 41t39 16h115q24 0 40.5 -16.5t16.5 -40.5v-922l340 -342l342 342v920q0 26 16 42.5t41 16.5h113q25 0 41 -16t16 -41v-985q0 -28 -18 -43l-512 -514q-11 -14 -39 -14q-25 0 -39 14l-512 514q-16 16 -16 43z" />
<glyph unicode="W" d="M115 342v1194q0 25 16 41t39 16h115q24 0 40.5 -16.5t16.5 -40.5v-1194q0 -46 33.5 -80.5t79.5 -34.5t80 34.5t34 80.5v512q0 23 16.5 39t41.5 16h112q25 0 41.5 -16t16.5 -39v-512q0 -46 33.5 -80.5t78.5 -34.5q46 0 80.5 34.5t34.5 80.5v1194q0 25 16 41t41 16h113 q25 0 41 -16t16 -41v-1194q0 -142 -99.5 -242t-242.5 -100q-131 0 -227 86q-96 -86 -227 -86q-141 0 -240.5 100t-99.5 242z" />
<glyph unicode="X" d="M115 57v310q0 24 16 43l389 389l-389 389q-16 19 -16 43v305q0 25 16 41t39 16h115q24 0 40.5 -16.5t16.5 -40.5v-242l340 -340l342 340v242q0 25 16 41t41 16h113q25 0 41 -16t16 -41v-305q0 -25 -18 -43l-389 -389l389 -389q18 -18 18 -43v-310q0 -25 -16 -41t-41 -16 h-113q-25 0 -41 16t-16 41v242l-342 340l-340 -340v-242q0 -24 -16.5 -40.5t-40.5 -16.5h-115q-23 0 -39 16t-16 41z" />
<glyph unicode="Y" d="M115 1231v305q0 25 16 41t39 16h115q24 0 40.5 -16.5t16.5 -40.5v-242l340 -340l342 340v242q0 25 16 41t41 16h113q25 0 41 -16t16 -41v-305q0 -25 -18 -43l-436 -434v-697q0 -25 -16.5 -41t-41.5 -16h-112q-25 0 -41.5 16t-16.5 41v697l-438 434q-16 19 -16 43z" />
<glyph unicode="Z" d="M115 57v310q0 24 16 43l893 884v72h-854q-23 0 -39 16t-16 39v115q0 25 16 41t39 16h1024q26 0 41.5 -16t15.5 -41v-305q0 -25 -18 -43l-891 -889v-72h852q25 0 41 -16t16 -41v-113q0 -25 -16 -41t-41 -16h-1024q-23 0 -39 16t-16 41z" />
<glyph unicode="[" d="M342 57v1479q0 25 16 41t39 16h797q25 0 41 -16t16 -41v-115q0 -23 -16 -39t-41 -16h-625v-1139h625q25 0 41 -16t16 -41v-113q0 -25 -16 -41t-41 -16h-797q-23 0 -39 16t-16 41z" />
<glyph unicode="\" d="M115 1231v305q0 25 16 41t39 16h115q24 0 40.5 -16.5t16.5 -40.5v-240l891 -890q18 -18 18 -44v-305q0 -25 -16 -41t-41 -16h-113q-25 0 -41 16t-16 41v238l-893 893q-16 19 -16 43z" />
<glyph unicode="]" d="M115 57v113q0 25 16 41t39 16h627v1139h-627q-23 0 -39 16t-16 39v115q0 25 16 41t39 16h797q25 0 41 -16t16 -41v-1479q0 -25 -16 -41t-41 -16h-797q-23 0 -39 16t-16 41z" />
<glyph unicode="^" d="M339 1273q0 23 17 40l287 286q15 15 39 15q27 0 39 -15l287 -286q17 -17 17 -40t-17 -40l-80 -80q-17 -17 -39 -17t-41 17l-166 166l-166 -166q-17 -17 -40 -17t-40 17l-80 80q-17 17 -17 40z" />
<glyph unicode="_" d="M115 -57q0 25 16 41t39 16h1024q25 0 41 -16t16 -41v-113q0 -25 -16 -41t-41 -16h-1024q-23 0 -39 16t-16 41v113z" />
<glyph unicode="`" d="M339 1455q0 23 17 40l80 80q17 17 40 17t40 -17l262 -262q17 -17 17 -40t-17 -40l-80 -80q-17 -17 -40 -17t-40 17l-262 262q-17 17 -17 40z" />
<glyph unicode="a" d="M115 342q0 141 99.5 240.5t240.5 99.5h569q0 94 -66.5 160.5t-160.5 66.5h-400q-23 0 -39 17t-16 41v114q0 24 16 41t39 17h400q123 0 227.5 -61t165.5 -166.5t61 -229.5v-625q0 -25 -16 -41t-41 -16h-739q-141 0 -240.5 100t-99.5 242zM342 342q0 -47 33 -81t80 -34h569 v228h-569q-47 0 -80 -33t-33 -80z" />
<glyph unicode="b" d="M115 57v1479q0 25 16 41t39 16h115q24 0 40.5 -16.5t16.5 -40.5v-397h455q123 0 227.5 -61t165.5 -166.5t61 -229.5v-227q0 -188 -133.5 -321.5t-320.5 -133.5h-627q-23 0 -39 16t-16 41zM342 227h455q94 0 160.5 67t66.5 161v227q0 94 -66.5 160.5t-160.5 66.5h-455 v-682z" />
<glyph unicode="c" d="M115 455v227q0 124 61 229.5t165.5 166.5t227.5 61h625q24 0 40.5 -17t16.5 -41v-114q0 -24 -16.5 -41t-40.5 -17h-625q-94 0 -160.5 -66.5t-66.5 -160.5v-227q0 -94 66.5 -161t160.5 -67h625q25 0 41 -16t16 -41v-113q0 -25 -16 -41t-41 -16h-625q-187 0 -320.5 133.5 t-133.5 321.5z" />
<glyph unicode="d" d="M115 455v227q0 124 61 229.5t165.5 166.5t227.5 61h455v397q0 25 16 41t41 16h113q25 0 41 -16t16 -41v-1479q0 -25 -16 -41t-41 -16h-625q-187 0 -320.5 133.5t-133.5 321.5zM342 455q0 -94 66.5 -161t160.5 -67h455v682h-455q-94 0 -160.5 -66.5t-66.5 -160.5v-227z " />
<glyph unicode="e" d="M115 455v227q0 124 61 229.5t165.5 166.5t227.5 61h228q123 0 227.5 -61t165.5 -166.5t61 -229.5v-170q0 -25 -16 -41t-41 -16h-852q0 -94 66.5 -161t160.5 -67h625q25 0 41 -16t16 -41v-113q0 -25 -16 -41t-41 -16h-625q-187 0 -320.5 133.5t-133.5 321.5zM342 682h682 q0 94 -66.5 160.5t-160.5 66.5h-228q-94 0 -160.5 -66.5t-66.5 -160.5z" />
<glyph unicode="f" d="M115 967v114q0 24 16 41t39 17h399q0 187 133.5 320.5t321.5 133.5h170q25 0 41 -16t16 -41v-115q0 -23 -16 -39t-41 -16h-170q-94 0 -160.5 -66.5t-66.5 -160.5h397q24 0 40.5 -17t16.5 -41v-114q0 -24 -16.5 -41t-40.5 -17h-397v-852q0 -25 -16.5 -41t-41.5 -16h-112 q-25 0 -41.5 16t-16.5 41v852h-399q-23 0 -39 17t-16 41z" />
<glyph unicode="g" d="M115 -285q0 25 16 41.5t39 16.5h627q94 0 160.5 66.5t66.5 160.5h-455q-187 0 -320.5 133.5t-133.5 321.5v227q0 124 61 229.5t165.5 166.5t227.5 61h625q24 0 40.5 -17t16.5 -41v-1081q0 -188 -133.5 -321.5t-320.5 -133.5h-627q-23 0 -39 16.5t-16 41.5v112zM342 455 q0 -94 66.5 -161t160.5 -67h455v682h-455q-94 0 -160.5 -66.5t-66.5 -160.5v-227z" />
<glyph unicode="h" d="M115 57v1479q0 25 16 41t39 16h115q24 0 40.5 -16.5t16.5 -40.5v-397h455q123 0 227.5 -61t165.5 -166.5t61 -229.5v-625q0 -25 -16 -41t-41 -16h-113q-25 0 -41 16t-16 41v625q0 94 -66.5 160.5t-160.5 66.5h-455v-852q-5 -26 -19.5 -41.5t-37.5 -15.5h-115 q-23 0 -39 16t-16 41z" />
<glyph unicode="i" d="M115 57v113q0 25 16 41t39 16h399v682h-172q-23 0 -39 17t-16 41v114q0 24 16 41t39 17h342q24 0 41 -17t17 -41v-854h397q25 0 41 -16t16 -41v-113q0 -25 -16 -41t-41 -16h-1024q-23 0 -39 16t-16 41zM569 1421v115q0 25 16.5 41t41.5 16h112q25 0 41.5 -16t16.5 -41 v-115q0 -23 -16.5 -39t-41.5 -16h-112q-25 0 -41.5 16t-16.5 39z" />
<glyph unicode="j" d="M115 0q0 25 16 41t39 16h115q24 0 40.5 -16.5t16.5 -40.5q0 -94 66.5 -160.5t160.5 -66.5h228q94 0 160.5 66.5t66.5 160.5v909h-170q-24 0 -40.5 17t-16.5 41v114q0 24 16.5 41t40.5 17h340q24 0 40.5 -17t16.5 -41v-1081q0 -188 -133.5 -321.5t-320.5 -133.5h-228 q-187 0 -320.5 133.5t-133.5 321.5zM1024 1421v115q0 25 16 41t41 16h113q25 0 41 -16t16 -41v-115q0 -23 -16 -39t-41 -16h-113q-25 0 -41 16t-16 39z" />
<glyph unicode="k" d="M115 57v1479q0 25 16 41t39 16h115q24 0 40.5 -16.5t16.5 -40.5v-1149l731 733q19 17 41 17t39 -17l78 -78q17 -17 17 -40.5t-17 -40.5l-391 -392l393 -393q17 -19 17 -41t-17 -39l-80 -80q-17 -17 -39 -17t-41 17l-393 394l-393 -394q-16 -16 -41 -16h-76q-23 0 -39 16 t-16 41z" />
<glyph unicode="l" d="M115 57v113q0 25 16 41t39 16h399v1139h-172q-23 0 -39 16t-16 39v115q0 25 16 41t39 16h342q25 0 41.5 -16t16.5 -41v-1309h397q25 0 41 -16t16 -41v-113q0 -25 -16 -41t-41 -16h-1024q-23 0 -39 16t-16 41z" />
<glyph unicode="m" d="M115 57v1024q0 24 16 41t39 17h285q133 0 227 -88q94 88 227 88q142 0 242 -100.5t100 -241.5v-740q0 -25 -16 -41t-41 -16h-113q-25 0 -41 16t-16 41v740q0 45 -34.5 78.5t-80.5 33.5t-79 -33t-33 -79v-740q0 -25 -16.5 -41t-41.5 -16h-112q-25 0 -41.5 16t-16.5 41v740 q0 46 -34 79t-80 33h-113v-852q0 -24 -16.5 -40.5t-40.5 -16.5h-115q-23 0 -39 16t-16 41z" />
<glyph unicode="n" d="M115 57v1024q0 24 16 41t39 17h627q123 0 227.5 -61t165.5 -166.5t61 -229.5v-625q0 -25 -16 -41t-41 -16h-113q-25 0 -41 16t-16 41v625q0 94 -66.5 160.5t-160.5 66.5h-455v-852q0 -24 -16.5 -40.5t-40.5 -16.5h-115q-23 0 -39 16t-16 41z" />
<glyph unicode="o" d="M115 455v227q0 124 61 229.5t165.5 166.5t227.5 61h228q123 0 227.5 -61t165.5 -166.5t61 -229.5v-227q0 -188 -133.5 -321.5t-320.5 -133.5h-228q-187 0 -320.5 133.5t-133.5 321.5zM342 455q0 -94 66.5 -161t160.5 -67h228q94 0 160.5 67t66.5 161v227 q0 94 -66.5 160.5t-160.5 66.5h-228q-94 0 -160.5 -66.5t-66.5 -160.5v-227z" />
<glyph unicode="p" d="M115 -397v1478q0 24 16 41t39 17h627q123 0 227.5 -61t165.5 -166.5t61 -229.5v-227q0 -188 -133.5 -321.5t-320.5 -133.5h-455v-397q0 -25 -17 -41.5t-40 -16.5h-115q-23 0 -39 16.5t-16 41.5zM342 227h455q94 0 160.5 67t66.5 161v227q0 94 -66.5 160.5t-160.5 66.5 h-455v-682z" />
<glyph unicode="q" d="M115 455v227q0 124 61 229.5t165.5 166.5t227.5 61h625q24 0 40.5 -17t16.5 -41v-1478q0 -25 -16 -41.5t-41 -16.5h-113q-25 0 -41 16.5t-16 41.5v397h-455q-187 0 -320.5 133.5t-133.5 321.5zM342 455q0 -94 66.5 -161t160.5 -67h455v682h-455q-94 0 -160.5 -66.5 t-66.5 -160.5v-227z" />
<glyph unicode="r" d="M115 57v1024q0 24 16 41t39 17h627q123 0 227.5 -61t165.5 -166.5t61 -229.5q0 -23 -16 -39t-41 -16h-113q-25 0 -41 16t-16 39q0 94 -66.5 160.5t-160.5 66.5h-455v-852q0 -24 -16.5 -40.5t-40.5 -16.5h-115q-23 0 -39 16t-16 41z" />
<glyph unicode="s" d="M115 57v113q0 25 16 41t39 16h739q46 0 80.5 34.5t34.5 80.5t-34.5 79.5t-80.5 33.5h-454q-141 0 -240.5 100.5t-99.5 241.5t99.5 241.5t240.5 100.5h739q24 0 40.5 -17t16.5 -41v-114q0 -24 -16.5 -41t-40.5 -17h-739q-46 0 -79.5 -33t-33.5 -79t33.5 -80.5t79.5 -34.5 h454q142 0 242 -99.5t100 -240.5q0 -142 -99.5 -242t-242.5 -100h-739q-23 0 -39 16t-16 41z" />
<glyph unicode="t" d="M115 967v114q0 24 16 41t39 17h399v397q0 25 16.5 41t41.5 16h112q25 0 41.5 -16t16.5 -41v-397h397q24 0 40.5 -17t16.5 -41v-114q0 -24 -16.5 -41t-40.5 -17h-397v-454q0 -94 66.5 -161t160.5 -67h170q25 0 41 -16t16 -41v-113q0 -25 -16 -41t-41 -16h-170 q-92 0 -176.5 36t-145.5 97t-97 145.5t-36 176.5v454h-399q-23 0 -39 17t-16 41z" />
<glyph unicode="u" d="M115 455v626q0 24 16 41t39 17h115q23 0 40 -17.5t17 -40.5v-626q0 -94 66.5 -161t160.5 -67h455v854q0 24 16.5 41t40.5 17h113q24 0 40.5 -17t16.5 -41v-1024q0 -25 -16 -41t-41 -16h-625q-187 0 -320.5 133.5t-133.5 321.5z" />
<glyph unicode="v" d="M115 551v530q0 24 16 41t39 17h115q23 0 40 -17.5t17 -40.5v-467l340 -342l342 342v465q0 25 16.5 42.5t40.5 17.5h113q24 0 40.5 -17t16.5 -41v-530q0 -28 -18 -43l-512 -514q-11 -14 -39 -14q-25 0 -39 14l-512 514q-16 16 -16 43z" />
<glyph unicode="w" d="M115 342v739q0 24 16 41t39 17h115q23 0 40 -17.5t17 -40.5v-739q0 -46 33.5 -80.5t79.5 -34.5t80 34.5t34 80.5v285q0 23 16.5 39t41.5 16h112q25 0 41.5 -16t16.5 -39v-285q0 -46 33.5 -80.5t78.5 -34.5q46 0 80.5 34.5t34.5 80.5v739q0 24 16.5 41t40.5 17h113 q24 0 40.5 -17t16.5 -41v-739q0 -142 -99.5 -242t-242.5 -100q-131 0 -227 86q-96 -86 -227 -86q-141 0 -240.5 100t-99.5 242z" />
<glyph unicode="x" d="M112 135q0 22 17 41l395 393l-393 392q-17 17 -17 39.5t17 39.5l80 80q17 17 40 17t40 -17l391 -391l391 391q19 17 41 17t39 -17l80 -80q17 -17 17 -39.5t-17 -39.5l-391 -392l393 -393q17 -19 17 -41t-17 -39l-80 -80q-17 -17 -39 -17t-39 17l-395 394l-393 -394 q-17 -17 -40 -17t-40 17l-80 80q-17 17 -17 39z" />
<glyph unicode="y" d="M115 -285q0 25 16 41.5t39 16.5h627q94 0 160.5 66.5t66.5 160.5h-455q-187 0 -320.5 133.5t-133.5 321.5v626q0 24 16 41t39 17h115q23 0 40 -17.5t17 -40.5v-626q0 -94 66.5 -161t160.5 -67h455v854q3 25 18 41.5t39 16.5h113q24 0 40.5 -17t16.5 -41v-1081 q0 -188 -133.5 -321.5t-320.5 -133.5h-627q-23 0 -39 16.5t-16 41.5v112z" />
<glyph unicode="z" d="M115 57v113q0 25 16 41t39 16h12l682 682h-694q-23 0 -39 17t-16 41v114q0 24 16 41t39 17h1024q24 0 40.5 -17t16.5 -41v-114q0 -24 -16.5 -41t-40.5 -17h-10l-684 -682h694q25 0 41 -16t16 -41v-113q0 -25 -16 -41t-41 -16h-1024q-23 0 -39 16t-16 41z" />
<glyph unicode="{" d="M342 739v115q0 23 16 39t39 16h172v230q0 187 133.5 320.5t321.5 133.5h170q25 0 41 -16t16 -41v-115q0 -23 -16 -39t-41 -16h-170q-94 0 -160.5 -66.5t-66.5 -160.5v-684q0 -94 66.5 -161t160.5 -67h170q25 0 41 -16t16 -41v-113q0 -25 -16 -41t-41 -16h-170 q-92 0 -176.5 36t-145.5 97t-97 145.5t-36 176.5v227h-172q-23 0 -39 17t-16 40z" />
<glyph unicode="|" d="M569 -397v1933q0 25 16.5 41t41.5 16h112q25 0 41.5 -16t16.5 -41v-1933q0 -25 -16.5 -41.5t-41.5 -16.5h-112q-25 0 -41.5 16.5t-16.5 41.5z" />
<glyph unicode="}" d="M115 57v113q0 25 16 41t39 16h172q94 0 160.5 67t66.5 161v684q0 94 -66.5 160.5t-160.5 66.5h-172q-23 0 -39 16t-16 39v115q0 25 16 41t39 16h172q188 0 321.5 -133.5t133.5 -320.5v-230h170q25 0 41 -16t16 -39v-115q0 -24 -16.5 -40.5t-40.5 -16.5h-170v-227 q0 -92 -36 -176.5t-97 -145.5t-145.5 -97t-176.5 -36h-172q-23 0 -39 16t-16 41z" />
<glyph unicode="~" d="M115 797q0 141 99.5 241.5t240.5 100.5t241.5 -100.5t100.5 -241.5q0 -46 33.5 -80.5t78.5 -34.5q46 0 80.5 34.5t34.5 80.5q0 24 16.5 40.5t40.5 16.5h113q24 0 40.5 -16.5t16.5 -40.5q0 -141 -100 -241.5t-242 -100.5q-141 0 -240.5 100.5t-99.5 241.5q0 46 -33.5 79 t-80.5 33t-80 -33t-33 -79q0 -25 -17 -41.5t-40 -16.5h-115q-23 0 -39 16.5t-16 41.5z" />
<glyph unicode="&#xa0;" />
<glyph unicode="&#xa1;" d="M797 57v1024q0 24 16.5 41t40.5 17h113q24 0 40.5 -17t16.5 -41v-1024q0 -25 -16 -41t-41 -16h-113q-25 0 -41 16t-16 41zM797 1421v115q0 25 16 41t41 16h113q25 0 41 -16t16 -41v-115q0 -23 -16 -39t-41 -16h-113q-25 0 -41 16t-16 39z" />
<glyph unicode="&#xa2;" d="M115 682v227q0 124 61 229.5t165.5 166.5t227.5 61h228v170q0 25 16 41t41 16h113q25 0 41 -16t16 -41v-170h170q24 0 40.5 -16.5t16.5 -40.5v-115q0 -23 -16 -39t-41 -16h-170v-684h170q25 0 41 -16.5t16 -41.5v-112q0 -25 -16 -41.5t-41 -16.5h-170v-170q0 -25 -16 -41 t-41 -16h-113q-25 0 -41 16t-16 41v170h-228q-187 0 -320.5 133.5t-133.5 321.5zM342 682q0 -94 66.5 -160.5t160.5 -66.5h228v684h-228q-94 0 -160.5 -67.5t-66.5 -162.5v-227z" />
<glyph unicode="&#xa3;" d="M115 57v113q0 25 16 41t39 16h172v228h-172q-23 0 -39 16t-16 41v115q0 23 16 39t39 16h172v457q0 187 133.5 320.5t321.5 133.5q187 0 320.5 -133.5t133.5 -320.5q0 -25 -16 -41.5t-41 -16.5h-113q-25 0 -41 16.5t-16 41.5q0 94 -66.5 160.5t-160.5 66.5t-161 -66.5 t-67 -160.5v-457h398q25 0 41 -16t16 -39v-115q0 -25 -16 -41t-41 -16h-398v-228h625q25 0 41 -16t16 -41v-113q0 -25 -16 -41t-41 -16h-1024q-23 0 -39 16t-16 41z" />
<glyph unicode="&#xa5;" d="M115 285v112q0 25 16 41.5t39 16.5h399v227h-399q-23 0 -39 17t-16 40v115q0 23 16 39t39 16h242l-281 279q-16 19 -16 43v305q0 25 16 41t39 16h115q24 0 40.5 -16.5t16.5 -40.5v-242l340 -340l342 340v242q0 25 16 41t41 16h113q25 0 41 -16t16 -41v-305q0 -25 -18 -43 l-279 -279h240q25 0 41 -16t16 -39v-115q0 -24 -16.5 -40.5t-40.5 -16.5h-397v-227h397q25 0 41 -16.5t16 -41.5v-112q0 -25 -16 -41.5t-41 -16.5h-397v-170q0 -25 -16.5 -41t-41.5 -16h-112q-25 0 -41.5 16t-16.5 41v170h-399q-23 0 -39 16.5t-16 41.5z" />
<glyph unicode="&#xa6;" d="M569 -397v794q0 25 16.5 41.5t41.5 16.5h112q25 0 41.5 -16.5t16.5 -41.5v-794q0 -25 -16.5 -41.5t-41.5 -16.5h-112q-25 0 -41.5 16.5t-16.5 41.5zM569 739v797q0 25 16.5 41t41.5 16h112q25 0 41.5 -16t16.5 -41v-797q0 -23 -16.5 -40t-41.5 -17h-112q-25 0 -41.5 17 t-16.5 40z" />
<glyph unicode="&#xa7;" d="M115 57v113q0 25 16 41t39 16h739q46 0 80.5 34.5t34.5 80.5t-34.5 79.5t-80.5 33.5h-454q-141 0 -240.5 100.5t-99.5 241.5q0 131 86 227q-86 96 -86 227q0 141 99.5 241.5t240.5 100.5h739q25 0 41 -16t16 -41v-115q0 -23 -16 -39t-41 -16h-739q-46 0 -79.5 -34.5 t-33.5 -80.5t33.5 -79t79.5 -33h454q142 0 242 -100.5t100 -241.5q0 -132 -86 -228q86 -99 86 -227q0 -142 -99.5 -242t-242.5 -100h-739q-23 0 -39 16t-16 41zM342 797q0 -46 33.5 -80.5t79.5 -34.5h454q46 0 80.5 34.5t34.5 80.5q0 45 -34.5 78.5t-80.5 33.5h-454 q-46 0 -79.5 -33t-33.5 -79z" />
<glyph unicode="&#xa8;" d="M342 1421v115q0 25 16 41t39 16h115q25 0 41 -16t16 -41v-115q0 -23 -16 -39t-41 -16h-115q-23 0 -39 16t-16 39zM797 1421v115q0 25 16 41t41 16h113q25 0 41 -16t16 -41v-115q0 -23 -16 -39t-41 -16h-113q-25 0 -41 16t-16 39z" />
<glyph unicode="&#xa9;" d="M115 -285q0 25 16 41.5t39 16.5h1024q25 0 41 -16.5t16 -41.5v-112q0 -25 -16 -41.5t-41 -16.5h-1024q-23 0 -39 16.5t-16 41.5v112zM115 455v227q0 124 61 229.5t165.5 166.5t227.5 61h625q24 0 40.5 -17t16.5 -41v-114q0 -24 -16.5 -41t-40.5 -17h-625 q-94 0 -160.5 -66.5t-66.5 -160.5v-227q0 -94 66.5 -161t160.5 -67h625q25 0 41 -16t16 -41v-113q0 -25 -16 -41t-41 -16h-625q-187 0 -320.5 133.5t-133.5 321.5zM115 1421v115q0 25 16 41t39 16h1024q25 0 41 -16t16 -41v-115q0 -23 -16 -39t-41 -16h-1024q-23 0 -39 16 t-16 39z" />
<glyph unicode="&#xaa;" d="M115 797q0 141 99.5 241.5t240.5 100.5h569q0 94 -66.5 160.5t-160.5 66.5h-400q-23 0 -39 16t-16 39v115q0 25 16 41t39 16h400q187 0 320.5 -133.5t133.5 -320.5v-627q0 -25 -16 -41t-41 -16h-739q-141 0 -240.5 100.5t-99.5 241.5zM342 797q0 -47 33 -81t80 -34h569 v227h-569q-47 0 -80 -32.5t-33 -79.5z" />
<glyph unicode="&#xab;" d="M94 797q0 24 12 39l742 741q19 17 41 17t39 -17l80 -80q17 -17 17 -40t-17 -40l-621 -620l621 -621q17 -19 17 -41t-17 -39l-80 -80q-17 -17 -39 -17t-41 17l-742 742q-12 12 -12 39zM776 797q0 24 15 39l286 286q17 17 39 17t39 -17l80 -80q17 -17 17 -39.5t-17 -39.5 l-166 -166l166 -166q17 -17 17 -40t-17 -40l-80 -80q-17 -17 -39 -17t-39 17l-286 287q-15 12 -15 39z" />
<glyph unicode="&#xad;" d="M115 512v115q0 23 16 39t39 16h1024q25 0 41 -16t16 -39v-115q0 -25 -16 -41t-41 -16h-1024q-23 0 -39 16t-16 41z" />
<glyph unicode="&#xae;" d="M115 57v1024q0 24 16 41t39 17h739q142 0 242 -100.5t100 -241.5q0 -131 -86.5 -228t-214.5 -112l283 -281q17 -19 17 -41t-17 -39l-80 -80q-17 -17 -39 -17t-41 17l-438 439h-293v-398q0 -24 -16.5 -40.5t-40.5 -16.5h-115q-23 0 -39 16t-16 41zM115 -285q0 25 16 41.5 t39 16.5h1024q25 0 41 -16.5t16 -41.5v-112q0 -25 -16 -41.5t-41 -16.5h-1024q-23 0 -39 16.5t-16 41.5v112zM115 1421v115q0 25 16 41t39 16h1024q25 0 41 -16t16 -41v-115q0 -23 -16 -39t-41 -16h-1024q-23 0 -39 16t-16 39zM342 682h567q49 0 82 33.5t33 81.5 q0 47 -33 79.5t-82 32.5h-567v-227z" />
<glyph unicode="&#xaf;" d="M342 1421v115q0 25 16 41t39 16h570q25 0 41 -16t16 -41v-115q0 -23 -16 -39t-41 -16h-570q-23 0 -39 16t-16 39z" />
<glyph unicode="&#xb0;" d="M342 1251q0 141 99.5 241.5t240.5 100.5q142 0 242 -100.5t100 -241.5t-100 -241.5t-242 -100.5q-141 0 -240.5 100.5t-99.5 241.5zM569 1251q0 -47 33 -79.5t80 -32.5q48 0 81.5 32.5t33.5 79.5t-34 81t-81 34t-80 -34t-33 -81z" />
<glyph unicode="&#xb1;" d="M115 57v113q0 25 16 41t39 16h1024q25 0 41 -16t16 -41v-113q0 -25 -16 -41t-41 -16h-1024q-23 0 -39 16t-16 41zM115 967v114q0 24 16 41t39 17h399v397q0 25 16.5 41t41.5 16h112q25 0 41.5 -16t16.5 -41v-397h397q24 0 40.5 -17t16.5 -41v-114q0 -24 -16.5 -41 t-40.5 -17h-397v-397q0 -25 -16.5 -41t-41.5 -16h-112q-25 0 -41.5 16t-16.5 41v397h-399q-23 0 -39 17t-16 41z" />
<glyph unicode="&#xb4;" d="M571 1273q0 23 17 40l260 262q19 17 41 17t39 -17l80 -80q17 -17 17 -40t-17 -40l-263 -262q-17 -17 -38.5 -17t-38.5 17l-80 80q-17 17 -17 40z" />
<glyph unicode="&#xb6;" d="M115 1139q0 187 133.5 320.5t320.5 133.5h625q25 0 41 -16t16 -41v-115q0 -23 -16 -39t-41 -16h-170v-1366q0 -92 -36 -176.5t-97 -145.5t-145.5 -97t-176.5 -36q-25 0 -41 16.5t-16 41.5v112q0 25 16 41.5t41 16.5q94 0 161 66.5t67 160.5v682h-228q-123 0 -227.5 61 t-165.5 166.5t-61 229.5z" />
<glyph unicode="&#xb7;" d="M569 739v342q0 24 17 41t41 17h340q24 0 40.5 -17t16.5 -41v-342q0 -24 -16.5 -40.5t-40.5 -16.5h-340q-25 0 -41.5 17t-16.5 40z" />
<glyph unicode="&#xb8;" d="M229 -319.5q0 21.5 17 38.5l489 490q17 17 40 17t40 -17l80 -80q17 -17 17 -39t-17 -41l-489 -487q-17 -19 -40 -19t-40 19l-80 78q-17 19 -17 40.5z" />
<glyph unicode="&#xba;" d="M115 909v230q0 187 133.5 320.5t320.5 133.5h228q187 0 320.5 -133.5t133.5 -320.5v-230q0 -187 -133.5 -320.5t-320.5 -133.5h-228q-187 0 -320.5 133.5t-133.5 320.5zM342 909q0 -94 66.5 -160.5t160.5 -66.5h228q94 0 160.5 66.5t66.5 160.5v230q0 94 -66.5 160.5 t-160.5 66.5h-228q-35 0 -71.5 -23.5t-63 -57t-48 -66.5t-32.5 -57l-12 -23v-230z" />
<glyph unicode="&#xbb;" d="M112 591q0 23 17 40l166 166l-166 166q-17 17 -17 39.5t17 39.5l80 80q17 17 40 17t40 -17l286 -286q15 -15 15 -39q0 -27 -15 -39l-286 -287q-17 -17 -40 -17t-40 17l-80 80q-17 17 -17 40zM339 135q0 22 17 41l623 621l-623 620q-17 17 -17 40t17 40l80 80q17 17 40 17 t40 -17l741 -741q15 -15 15 -39q0 -27 -15 -39l-741 -742q-17 -17 -40 -17t-40 17l-80 80q-17 17 -17 39z" />
<glyph unicode="&#xbf;" d="M115 455q0 92 36 177t97 146l370 371q17 17 40 17t40 -17l82 -82q17 -17 17 -40t-17 -40l-368 -369q-70 -70 -70 -163q0 -94 66.5 -161t160.5 -67h228q94 0 160.5 67t66.5 161q0 25 16 41t41 16h113q25 0 41 -16t16 -41q0 -188 -133.5 -321.5t-320.5 -133.5h-228 q-187 0 -320.5 133.5t-133.5 321.5zM569 1421v115q0 25 16.5 41t41.5 16h112q25 0 41.5 -16t16.5 -41v-115q0 -23 -16.5 -39t-41.5 -16h-112q-25 0 -41.5 16t-16.5 39z" />
<glyph unicode="&#xc0;" d="M115 57v1082q0 187 133.5 320.5t320.5 133.5h78q-18 4 -29 17l-262 260q-17 17 -17 40t17 40l80 80q17 17 40 17t40 -17l262 -263q17 -17 17 -38.5t-17 -40.5l-80 -78q-11 -14 -28 -17h127q187 0 320.5 -133.5t133.5 -320.5v-1082q0 -25 -16 -41t-41 -16h-113 q-25 0 -41 16t-16 41v625h-682v-625q0 -24 -16.5 -40.5t-40.5 -16.5h-115q-23 0 -39 16t-16 41zM342 909h682v230q0 94 -66.5 160.5t-160.5 66.5h-228q-94 0 -160.5 -66.5t-66.5 -160.5v-230z" />
<glyph unicode="&#xc1;" d="M115 57v1082q0 187 133.5 320.5t320.5 133.5h228q187 0 320.5 -133.5t133.5 -320.5v-1082q0 -25 -16 -41t-41 -16h-113q-25 0 -41 16t-16 41v625h-682v-625q0 -24 -16.5 -40.5t-40.5 -16.5h-115q-23 0 -39 16t-16 41zM342 909h682v230q0 94 -66.5 160.5t-160.5 66.5h-228 q-94 0 -160.5 -66.5t-66.5 -160.5v-230zM571 1728.5q0 21.5 17 38.5l260 263q19 17 41 17t39 -17l80 -80q17 -17 17 -40t-17 -40l-263 -260q-17 -19 -38.5 -19t-38.5 19l-80 78q-17 19 -17 40.5z" />
<glyph unicode="&#xc2;" d="M115 57v1082q0 187 133.5 320.5t320.5 133.5h228q187 0 320.5 -133.5t133.5 -320.5v-1082q0 -25 -16 -41t-41 -16h-113q-25 0 -41 16t-16 41v625h-682v-625q0 -24 -16.5 -40.5t-40.5 -16.5h-115q-23 0 -39 16t-16 41zM339 1728.5q0 21.5 17 38.5l287 287q14 14 39 14 q28 0 39 -14l287 -287q17 -17 17 -38.5t-17 -40.5l-80 -78q-17 -19 -39 -19t-41 19l-166 166l-166 -166q-17 -19 -40 -19t-40 19l-80 78q-17 19 -17 40.5zM342 909h682v230q0 94 -66.5 160.5t-160.5 66.5h-228q-94 0 -160.5 -66.5t-66.5 -160.5v-230z" />
<glyph unicode="&#xc3;" d="M115 57v1082q0 187 133.5 320.5t320.5 133.5h19q-19 55 -19 113q0 46 -33.5 80.5t-80.5 34.5t-80 -34.5t-33 -80.5q0 -23 -17 -39t-40 -16h-115q-23 0 -39 16t-16 39q0 142 99.5 242t240.5 100t241.5 -100t100.5 -242q0 -46 33 -79.5t79 -33.5t80.5 33.5t34.5 79.5 q0 25 16 41t41 16h113q25 0 41 -16t16 -41q0 -77 -32 -144.5t-89 -115.5q121 -131 121 -307v-1082q0 -25 -16 -41t-41 -16h-113q-25 0 -41 16t-16 41v625h-682v-625q0 -24 -16.5 -40.5t-40.5 -16.5h-115q-23 0 -39 16t-16 41zM342 909h682v230q0 94 -66.5 160.5t-160.5 66.5 h-228q-94 0 -160.5 -66.5t-66.5 -160.5v-230z" />
<glyph unicode="&#xc4;" d="M115 57v1082q0 187 133.5 320.5t320.5 133.5h228q187 0 320.5 -133.5t133.5 -320.5v-1082q0 -25 -16 -41t-41 -16h-113q-25 0 -41 16t-16 41v625h-682v-625q0 -24 -16.5 -40.5t-40.5 -16.5h-115q-23 0 -39 16t-16 41zM342 909h682v230q0 94 -66.5 160.5t-160.5 66.5h-228 q-94 0 -160.5 -66.5t-66.5 -160.5v-230zM342 1878v113q0 25 16 41t39 16h115q25 0 41 -16t16 -41v-113q0 -25 -16 -41t-41 -16h-115q-23 0 -39 16t-16 41zM797 1878v113q0 25 16 41t41 16h113q25 0 41 -16t16 -41v-113q0 -25 -16 -41t-41 -16h-113q-25 0 -41 16t-16 41z" />
<glyph unicode="&#xc5;" d="M115 57v1082q0 135 72.5 245.5t191.5 165.5q-37 70 -37 156q0 141 99.5 241.5t240.5 100.5t241.5 -100.5t100.5 -241.5q0 -80 -37 -156q119 -55 191.5 -165.5t72.5 -245.5v-1082q0 -25 -16 -41t-41 -16h-113q-25 0 -41 16t-16 41v625h-682v-625q0 -24 -16.5 -40.5 t-40.5 -16.5h-115q-23 0 -39 16t-16 41zM342 909h682v230q0 94 -66.5 160.5t-160.5 66.5h-228q-94 0 -160.5 -66.5t-66.5 -160.5v-230zM569 1706q0 -47 33 -80t80 -33t81 33t34 80t-34 81t-81 34t-80 -34t-33 -81z" />
<glyph unicode="&#xc6;" d="M115 57v1082q0 187 133.5 320.5t320.5 133.5h625q25 0 41 -16t16 -41v-115q0 -23 -16 -39t-41 -16h-397v-457h170q25 0 41 -16t16 -39v-115q0 -24 -16.5 -40.5t-40.5 -16.5h-170v-455h397q25 0 41 -16t16 -41v-113q0 -25 -16 -41t-41 -16h-567q-25 0 -41.5 16t-16.5 41 v625h-227v-625q0 -24 -16.5 -40.5t-40.5 -16.5h-115q-23 0 -39 16t-16 41zM342 909h227v457q-94 0 -160.5 -66.5t-66.5 -160.5v-230z" />
<glyph unicode="&#xc7;" d="M115 455v684q0 187 133.5 320.5t320.5 133.5h228q187 0 320.5 -133.5t133.5 -320.5q0 -25 -16 -41.5t-41 -16.5h-113q-25 0 -41 16.5t-16 41.5q0 94 -66.5 160.5t-160.5 66.5h-228q-94 0 -160.5 -66.5t-66.5 -160.5v-684q0 -94 66.5 -161t160.5 -67h228q94 0 160.5 67 t66.5 161q0 25 16 41t41 16h113q25 0 41 -16t16 -41q0 -173 -117 -303.5t-288 -149.5l-440 -440q-17 -19 -40 -19t-40 19l-80 78q-17 19 -17 40.5t17 38.5l282 283q-175 15 -294 145.5t-119 307.5z" />
<glyph unicode="&#xc8;" d="M115 57v1479q0 25 16 41t39 16h477q-18 4 -29 17l-262 260q-17 17 -17 40t17 40l80 80q17 17 40 17t40 -17l262 -263q17 -17 17 -38.5t-17 -40.5l-80 -78q-11 -14 -28 -17h524q25 0 41 -16t16 -41v-115q0 -23 -16 -39t-41 -16h-852v-457h625q25 0 41 -16t16 -39v-115 q0 -24 -16.5 -40.5t-40.5 -16.5h-625v-455h852q25 0 41 -16t16 -41v-113q0 -25 -16 -41t-41 -16h-1024q-23 0 -39 16t-16 41z" />
<glyph unicode="&#xc9;" d="M115 57v1479q0 25 16 41t39 16h526q-17 3 -28 17l-80 78q-17 19 -17 40.5t17 38.5l260 263q19 17 41 17t39 -17l80 -80q17 -17 17 -40t-17 -40l-263 -260q-11 -14 -28 -17h477q25 0 41 -16t16 -41v-115q0 -23 -16 -39t-41 -16h-852v-457h625q25 0 41 -16t16 -39v-115 q0 -24 -16.5 -40.5t-40.5 -16.5h-625v-455h852q25 0 41 -16t16 -41v-113q0 -25 -16 -41t-41 -16h-1024q-23 0 -39 16t-16 41z" />
<glyph unicode="&#xca;" d="M115 57v1479q0 25 16 41t39 16h295q-18 4 -29 17l-80 78q-17 19 -17 40.5t17 38.5l287 287q14 14 39 14q28 0 39 -14l287 -287q17 -17 17 -38.5t-17 -40.5l-80 -78q-11 -13 -29 -17h295q25 0 41 -16t16 -41v-115q0 -23 -16 -39t-41 -16h-852v-457h625q25 0 41 -16t16 -39 v-115q0 -24 -16.5 -40.5t-40.5 -16.5h-625v-455h852q25 0 41 -16t16 -41v-113q0 -25 -16 -41t-41 -16h-1024q-23 0 -39 16t-16 41zM487 1593h392q-17 3 -31 17l-166 166l-166 -166q-11 -13 -29 -17z" />
<glyph unicode="&#xcb;" d="M115 57v1479q0 25 16 41t39 16h1024q25 0 41 -16t16 -41v-115q0 -23 -16 -39t-41 -16h-852v-457h625q25 0 41 -16t16 -39v-115q0 -24 -16.5 -40.5t-40.5 -16.5h-625v-455h852q25 0 41 -16t16 -41v-113q0 -25 -16 -41t-41 -16h-1024q-23 0 -39 16t-16 41zM342 1878v113 q0 25 16 41t39 16h115q25 0 41 -16t16 -41v-113q0 -25 -16 -41t-41 -16h-115q-23 0 -39 16t-16 41zM797 1878v113q0 25 16 41t41 16h113q25 0 41 -16t16 -41v-113q0 -25 -16 -41t-41 -16h-113q-25 0 -41 16t-16 41z" />
<glyph unicode="&#xcc;" d="M115 57v113q0 25 16 41t39 16h399v1139h-172q-23 0 -39 16t-16 39v115q0 25 16 41t39 16h250q-18 4 -29 17l-262 260q-17 17 -17 40t17 40l80 80q17 17 40 17t40 -17l262 -263q17 -17 17 -38.5t-17 -40.5l-80 -78q-11 -14 -28 -17h297q25 0 41 -16t16 -41v-115 q0 -23 -16 -39t-41 -16h-170v-1139h397q25 0 41 -16t16 -41v-113q0 -25 -16 -41t-41 -16h-1024q-23 0 -39 16t-16 41z" />
<glyph unicode="&#xcd;" d="M115 57v113q0 25 16 41t39 16h399v1139h-172q-23 0 -39 16t-16 39v115q0 25 16 41t39 16h299q-17 3 -28 17l-80 78q-17 19 -17 40.5t17 38.5l260 263q19 17 41 17t39 -17l80 -80q17 -17 17 -40t-17 -40l-263 -260q-11 -14 -28 -17h250q25 0 41 -16t16 -41v-115 q0 -23 -16 -39t-41 -16h-170v-1139h397q25 0 41 -16t16 -41v-113q0 -25 -16 -41t-41 -16h-1024q-23 0 -39 16t-16 41z" />
<glyph unicode="&#xce;" d="M115 57v113q0 25 16 41t39 16h399v1139h-172q-23 0 -39 16t-16 39v115q0 25 16 41t39 16h68q-18 4 -29 17l-80 78q-17 19 -17 40.5t17 38.5l287 287q14 14 39 14q28 0 39 -14l287 -287q17 -17 17 -38.5t-17 -40.5l-80 -78q-11 -13 -29 -17h68q25 0 41 -16t16 -41v-115 q0 -23 -16 -39t-41 -16h-170v-1139h397q25 0 41 -16t16 -41v-113q0 -25 -16 -41t-41 -16h-1024q-23 0 -39 16t-16 41zM487 1593h392q-17 3 -31 17l-166 166l-166 -166q-11 -13 -29 -17z" />
<glyph unicode="&#xcf;" d="M115 57v113q0 25 16 41t39 16h399v1139h-172q-23 0 -39 16t-16 39v115q0 25 16 41t39 16h570q25 0 41 -16t16 -41v-115q0 -23 -16 -39t-41 -16h-170v-1139h397q25 0 41 -16t16 -41v-113q0 -25 -16 -41t-41 -16h-1024q-23 0 -39 16t-16 41zM342 1878v113q0 25 16 41t39 16 h115q25 0 41 -16t16 -41v-113q0 -25 -16 -41t-41 -16h-115q-23 0 -39 16t-16 41zM797 1878v113q0 25 16 41t41 16h113q25 0 41 -16t16 -41v-113q0 -25 -16 -41t-41 -16h-113q-25 0 -41 16t-16 41z" />
<glyph unicode="&#xd0;" d="M115 57v1479q0 25 16 41t39 16h627q187 0 320.5 -133.5t133.5 -320.5v-684q0 -188 -133.5 -321.5t-320.5 -133.5h-627q-23 0 -39 16t-16 41zM342 227h455q94 0 160.5 67t66.5 161v684q0 94 -66.5 160.5t-160.5 66.5h-455v-457h397q25 0 41.5 -16t16.5 -39v-115 q0 -23 -16.5 -40t-41.5 -17h-397v-455z" />
<glyph unicode="&#xd1;" d="M115 57v1479q0 25 16 41t39 16h115q24 0 40.5 -16.5t16.5 -40.5v-240l682 -682v770q-52 -18 -115 -18q-141 0 -240.5 99.5t-99.5 240.5q0 46 -33.5 80.5t-80.5 34.5t-80 -34.5t-33 -80.5q0 -23 -17 -39t-40 -16h-115q-23 0 -39 16t-16 39q0 142 99.5 242t240.5 100 t241.5 -100t100.5 -242q0 -46 33 -79.5t79 -33.5t80.5 33.5t34.5 79.5q0 25 16 41t41 16h113q25 0 41 -16t16 -41v-1649q0 -25 -16 -41t-41 -16h-113q-25 0 -41 16t-16 41v238l-682 684v-922q0 -24 -16.5 -40.5t-40.5 -16.5h-115q-23 0 -39 16t-16 41z" />
<glyph unicode="&#xd2;" d="M115 455v684q0 187 133.5 320.5t320.5 133.5h78q-18 4 -29 17l-262 260q-17 17 -17 40t17 40l80 80q17 17 40 17t40 -17l262 -263q17 -17 17 -38.5t-17 -40.5l-80 -78q-11 -14 -28 -17h127q187 0 320.5 -133.5t133.5 -320.5v-684q0 -188 -133.5 -321.5t-320.5 -133.5 h-228q-187 0 -320.5 133.5t-133.5 321.5zM342 455q0 -94 66.5 -161t160.5 -67h228q94 0 160.5 67t66.5 161v684q0 94 -66.5 160.5t-160.5 66.5h-228q-94 0 -160.5 -66.5t-66.5 -160.5v-684z" />
<glyph unicode="&#xd3;" d="M115 455v684q0 187 133.5 320.5t320.5 133.5h228q187 0 320.5 -133.5t133.5 -320.5v-684q0 -188 -133.5 -321.5t-320.5 -133.5h-228q-187 0 -320.5 133.5t-133.5 321.5zM342 455q0 -94 66.5 -161t160.5 -67h228q94 0 160.5 67t66.5 161v684q0 94 -66.5 160.5t-160.5 66.5 h-228q-94 0 -160.5 -66.5t-66.5 -160.5v-684zM571 1728.5q0 21.5 17 38.5l260 263q19 17 41 17t39 -17l80 -80q17 -17 17 -40t-17 -40l-263 -260q-17 -19 -38.5 -19t-38.5 19l-80 78q-17 19 -17 40.5z" />
<glyph unicode="&#xd4;" d="M115 455v684q0 187 133.5 320.5t320.5 133.5h228q187 0 320.5 -133.5t133.5 -320.5v-684q0 -188 -133.5 -321.5t-320.5 -133.5h-228q-187 0 -320.5 133.5t-133.5 321.5zM339 1728.5q0 21.5 17 38.5l287 287q14 14 39 14q28 0 39 -14l287 -287q17 -17 17 -38.5t-17 -40.5 l-80 -78q-17 -19 -39 -19t-41 19l-166 166l-166 -166q-17 -19 -40 -19t-40 19l-80 78q-17 19 -17 40.5zM342 455q0 -94 66.5 -161t160.5 -67h228q94 0 160.5 67t66.5 161v684q0 94 -66.5 160.5t-160.5 66.5h-228q-94 0 -160.5 -66.5t-66.5 -160.5v-684z" />
<glyph unicode="&#xd5;" d="M115 455v684q0 187 133.5 320.5t320.5 133.5h19q-19 55 -19 113q0 46 -33.5 80.5t-80.5 34.5t-80 -34.5t-33 -80.5q0 -23 -17 -39t-40 -16h-115q-23 0 -39 16t-16 39q0 142 99.5 242t240.5 100t241.5 -100t100.5 -242q0 -46 33 -79.5t79 -33.5t80.5 33.5t34.5 79.5 q0 25 16 41t41 16h113q25 0 41 -16t16 -41q0 -77 -32 -144.5t-89 -115.5q121 -131 121 -307v-684q0 -188 -133.5 -321.5t-320.5 -133.5h-228q-187 0 -320.5 133.5t-133.5 321.5zM342 455q0 -94 66.5 -161t160.5 -67h228q94 0 160.5 67t66.5 161v684q0 94 -66.5 160.5 t-160.5 66.5h-228q-94 0 -160.5 -66.5t-66.5 -160.5v-684z" />
<glyph unicode="&#xd6;" d="M115 455v684q0 187 133.5 320.5t320.5 133.5h228q187 0 320.5 -133.5t133.5 -320.5v-684q0 -188 -133.5 -321.5t-320.5 -133.5h-228q-187 0 -320.5 133.5t-133.5 321.5zM342 455q0 -94 66.5 -161t160.5 -67h228q94 0 160.5 67t66.5 161v684q0 94 -66.5 160.5t-160.5 66.5 h-228q-94 0 -160.5 -66.5t-66.5 -160.5v-684zM342 1878v113q0 25 16 41t39 16h115q25 0 41 -16t16 -41v-113q0 -25 -16 -41t-41 -16h-115q-23 0 -39 16t-16 41zM797 1878v113q0 25 16 41t41 16h113q25 0 41 -16t16 -41v-113q0 -25 -16 -41t-41 -16h-113q-25 0 -41 16t-16 41 z" />
<glyph unicode="&#xd7;" d="M112 363.5q0 22.5 17 39.5l395 394l-393 391q-17 17 -17 40t17 40l80 80q17 17 40 17t40 -17l391 -392l391 392q19 17 41 17t39 -17l80 -80q17 -17 17 -40t-17 -40l-391 -391l393 -394q17 -17 17 -39.5t-17 -39.5l-80 -80q-17 -17 -39 -17t-39 17l-395 393l-393 -393 q-17 -17 -40 -17t-40 17l-80 80q-17 17 -17 39.5z" />
<glyph unicode="&#xd8;" d="M115 455v684q0 187 133.5 320.5t320.5 133.5h228q187 0 320.5 -133.5t133.5 -320.5v-684q0 -188 -133.5 -321.5t-320.5 -133.5h-228q-187 0 -320.5 133.5t-133.5 321.5zM342 616l645 646q-31 48 -81 76t-109 28h-228q-94 0 -160.5 -66.5t-66.5 -160.5v-523zM377 332 q31 -48 82 -76.5t110 -28.5h228q94 0 160.5 67t66.5 161v524z" />
<glyph unicode="&#xd9;" d="M115 455v1081q0 25 16 41t39 16h115q24 0 40.5 -16.5t16.5 -40.5v-1081q0 -94 66.5 -161t160.5 -67h228q94 0 160.5 67t66.5 161v1081q0 25 16 41t41 16h113q25 0 41 -16t16 -41v-1081q0 -188 -133.5 -321.5t-320.5 -133.5h-228q-187 0 -320.5 133.5t-133.5 321.5z M339 1910q0 23 17 40l80 80q17 17 40 17t40 -17l262 -263q17 -17 17 -38.5t-17 -40.5l-80 -78q-17 -19 -40 -19t-40 19l-262 260q-17 17 -17 40z" />
<glyph unicode="&#xda;" d="M115 455v1081q0 25 16 41t39 16h115q24 0 40.5 -16.5t16.5 -40.5v-1081q0 -94 66.5 -161t160.5 -67h228q94 0 160.5 67t66.5 161v1081q0 25 16 41t41 16h113q25 0 41 -16t16 -41v-1081q0 -188 -133.5 -321.5t-320.5 -133.5h-228q-187 0 -320.5 133.5t-133.5 321.5z M571 1728.5q0 21.5 17 38.5l260 263q19 17 41 17t39 -17l80 -80q17 -17 17 -40t-17 -40l-263 -260q-17 -19 -38.5 -19t-38.5 19l-80 78q-17 19 -17 40.5z" />
<glyph unicode="&#xdb;" d="M115 455v1081q0 25 16 41t39 16h115q24 0 40.5 -16.5t16.5 -40.5v-1081q0 -94 66.5 -161t160.5 -67h228q94 0 160.5 67t66.5 161v1081q0 25 16 41t41 16h113q25 0 41 -16t16 -41v-1081q0 -188 -133.5 -321.5t-320.5 -133.5h-228q-187 0 -320.5 133.5t-133.5 321.5z M339 1728.5q0 21.5 17 38.5l287 287q14 14 39 14q28 0 39 -14l287 -287q17 -17 17 -38.5t-17 -40.5l-80 -78q-17 -19 -39 -19t-41 19l-166 166l-166 -166q-17 -19 -40 -19t-40 19l-80 78q-17 19 -17 40.5z" />
<glyph unicode="&#xdc;" d="M115 455v1081q0 25 16 41t39 16h115q24 0 40.5 -16.5t16.5 -40.5v-1081q0 -94 66.5 -161t160.5 -67h228q94 0 160.5 67t66.5 161v1081q0 25 16 41t41 16h113q25 0 41 -16t16 -41v-1081q0 -188 -133.5 -321.5t-320.5 -133.5h-228q-187 0 -320.5 133.5t-133.5 321.5z M342 1878v113q0 25 16 41t39 16h115q25 0 41 -16t16 -41v-113q0 -25 -16 -41t-41 -16h-115q-23 0 -39 16t-16 41zM797 1878v113q0 25 16 41t41 16h113q25 0 41 -16t16 -41v-113q0 -25 -16 -41t-41 -16h-113q-25 0 -41 16t-16 41z" />
<glyph unicode="&#xdd;" d="M115 1231v305q0 25 16 41t39 16h115q24 0 40.5 -16.5t16.5 -40.5v-242l340 -340l342 340v242q0 25 16 41t41 16h113q25 0 41 -16t16 -41v-305q0 -25 -18 -43l-436 -434v-697q0 -25 -16.5 -41t-41.5 -16h-112q-25 0 -41.5 16t-16.5 41v697l-438 434q-16 19 -16 43z M571 1728.5q0 21.5 17 38.5l260 263q19 17 41 17t39 -17l80 -80q17 -17 17 -40t-17 -40l-263 -260q-17 -19 -38.5 -19t-38.5 19l-80 78q-17 19 -17 40.5z" />
<glyph unicode="&#xde;" d="M115 57v1479q0 25 16 41t39 16h115q24 0 40.5 -16.5t16.5 -40.5v-170h455q123 0 227.5 -61t165.5 -166.5t61 -229.5q0 -187 -133.5 -320.5t-320.5 -133.5h-455v-398q0 -24 -16.5 -40.5t-40.5 -16.5h-115q-23 0 -39 16t-16 41zM342 682h455q94 0 160.5 66.5t66.5 160.5 q0 95 -66.5 162.5t-160.5 67.5h-455v-457z" />
<glyph unicode="&#xdf;" d="M115 57v1082q0 187 133.5 320.5t320.5 133.5q188 0 321.5 -133.5t133.5 -320.5q0 -141 -78 -254q134 -48 219.5 -165.5t85.5 -264.5q0 -188 -133.5 -321.5t-320.5 -133.5h-228q-25 0 -41 16t-16 41v113q0 25 16 41t41 16h228q94 0 160.5 67t66.5 161t-66.5 160.5 t-160.5 66.5h-228q-24 0 -40.5 16.5t-16.5 40.5v115q0 23 16 39t41 16q94 0 161 67.5t67 162.5q0 94 -67 160.5t-161 66.5t-160.5 -66.5t-66.5 -160.5v-1082q0 -24 -16.5 -40.5t-40.5 -16.5h-115q-23 0 -39 16t-16 41z" />
<glyph unicode="&#xe0;" d="M115 342q0 141 99.5 240.5t240.5 99.5h569q0 94 -66.5 160.5t-160.5 66.5h-400q-23 0 -39 17t-16 41v114q0 24 16 41t39 17h400q123 0 227.5 -61t165.5 -166.5t61 -229.5v-625q0 -25 -16 -41t-41 -16h-739q-141 0 -240.5 100t-99.5 242zM339 1455q0 23 17 40l80 80 q17 17 40 17t40 -17l262 -262q17 -17 17 -40t-17 -40l-80 -80q-17 -17 -40 -17t-40 17l-262 262q-17 17 -17 40zM342 342q0 -47 33 -81t80 -34h569v228h-569q-47 0 -80 -33t-33 -80z" />
<glyph unicode="&#xe1;" d="M115 342q0 141 99.5 240.5t240.5 99.5h569q0 94 -66.5 160.5t-160.5 66.5h-400q-23 0 -39 17t-16 41v114q0 24 16 41t39 17h299q-18 3 -28 14l-80 80q-17 17 -17 40t17 40l260 262q19 17 41 17t39 -17l80 -80q17 -17 17 -40t-17 -40l-263 -262q-11 -11 -28 -14h80 q123 0 227.5 -61t165.5 -166.5t61 -229.5v-625q0 -25 -16 -41t-41 -16h-739q-141 0 -240.5 100t-99.5 242zM342 342q0 -47 33 -81t80 -34h569v228h-569q-47 0 -80 -33t-33 -80z" />
<glyph unicode="&#xe2;" d="M115 342q0 141 99.5 240.5t240.5 99.5h569q0 94 -66.5 160.5t-160.5 66.5h-400q-23 0 -39 17t-16 41v114q0 24 16 41t39 17h400q123 0 227.5 -61t165.5 -166.5t61 -229.5v-625q0 -25 -16 -41t-41 -16h-739q-141 0 -240.5 100t-99.5 242zM339 1273q0 23 17 40l287 286 q15 15 39 15q27 0 39 -15l287 -286q17 -17 17 -40t-17 -40l-80 -80q-17 -17 -39 -17t-41 17l-166 166l-166 -166q-17 -17 -40 -17t-40 17l-80 80q-17 17 -17 40zM342 342q0 -47 33 -81t80 -34h569v228h-569q-47 0 -80 -33t-33 -80z" />
<glyph unicode="&#xe3;" d="M115 342q0 141 99.5 240.5t240.5 99.5h569q0 94 -66.5 160.5t-160.5 66.5h-400q-23 0 -39 17t-16 41v114q0 24 16 41t39 17h193q-21 52 -21 112q0 46 -33.5 80.5t-80.5 34.5t-80 -34.5t-33 -80.5q0 -23 -17 -40t-40 -17h-115q-23 0 -39 17t-16 40q0 141 99.5 241.5 t240.5 100.5t241.5 -100.5t100.5 -241.5q0 -46 33 -79t79 -33t80.5 33.5t34.5 78.5q0 25 16 41.5t41 16.5h113q25 0 41 -16.5t16 -41.5q0 -77 -32.5 -145.5t-88.5 -116.5q121 -127 121 -307v-625q0 -25 -16 -41t-41 -16h-739q-141 0 -240.5 100t-99.5 242zM342 342 q0 -47 33 -81t80 -34h569v228h-569q-47 0 -80 -33t-33 -80z" />
<glyph unicode="&#xe4;" d="M115 342q0 141 99.5 240.5t240.5 99.5h569q0 94 -66.5 160.5t-160.5 66.5h-400q-23 0 -39 17t-16 41v114q0 24 16 41t39 17h400q123 0 227.5 -61t165.5 -166.5t61 -229.5v-625q0 -25 -16 -41t-41 -16h-739q-141 0 -240.5 100t-99.5 242zM342 342q0 -47 33 -81t80 -34h569 v228h-569q-47 0 -80 -33t-33 -80zM342 1421v115q0 25 16 41t39 16h115q25 0 41 -16t16 -41v-115q0 -23 -16 -39t-41 -16h-115q-23 0 -39 16t-16 39zM797 1421v115q0 25 16 41t41 16h113q25 0 41 -16t16 -41v-115q0 -23 -16 -39t-41 -16h-113q-25 0 -41 16t-16 39z" />
<glyph unicode="&#xe5;" d="M115 342q0 141 99.5 240.5t240.5 99.5h569q0 94 -66.5 160.5t-160.5 66.5h-400q-23 0 -39 17t-16 41v114q0 32 23 45q-23 64 -23 125q0 141 99.5 241.5t240.5 100.5q142 0 242 -100.5t100 -241.5q0 -81 -37 -153q119 -56 191.5 -168.5t72.5 -247.5v-625q0 -25 -16 -41 t-41 -16h-739q-141 0 -240.5 100t-99.5 242zM342 342q0 -47 33 -81t80 -34h569v228h-569q-47 0 -80 -33t-33 -80zM569 1251q0 -47 33 -79.5t80 -32.5q48 0 81.5 32.5t33.5 79.5t-34 81t-81 34t-80 -34t-33 -81z" />
<glyph unicode="&#xe6;" d="M115 342q0 141 99.5 240.5t240.5 99.5h114v227h-172q-23 0 -39 17t-16 41v114q0 24 16 41t39 17h400q123 0 227.5 -61t165.5 -166.5t61 -229.5v-170q0 -25 -16 -41t-41 -16h-397v-228h393q25 0 43 -16.5t18 -40.5v-113q0 -25 -16 -41t-41 -16h-739q-141 0 -240.5 100 t-99.5 242zM342 342q0 -47 33 -81t80 -34h114v228h-114q-47 0 -80 -33t-33 -80zM797 682h227q0 94 -66.5 160.5t-160.5 66.5v-227z" />
<glyph unicode="&#xe7;" d="M115 455v227q0 124 61 229.5t165.5 166.5t227.5 61h625q24 0 40.5 -17t16.5 -41v-114q0 -24 -16.5 -41t-40.5 -17h-625q-94 0 -160.5 -66.5t-66.5 -160.5v-227q0 -94 66.5 -161t160.5 -67h625q25 0 41 -16t16 -41v-113q0 -25 -16 -41t-41 -16h-350l-438 -438 q-17 -19 -40 -19t-40 19l-80 78q-17 19 -17 40.5t17 38.5l282 283q-175 15 -294 145.5t-119 307.5z" />
<glyph unicode="&#xe8;" d="M115 455v227q0 124 61 229.5t165.5 166.5t227.5 61h228q123 0 227.5 -61t165.5 -166.5t61 -229.5v-170q0 -25 -16 -41t-41 -16h-852q0 -94 66.5 -161t160.5 -67h625q25 0 41 -16t16 -41v-113q0 -25 -16 -41t-41 -16h-625q-187 0 -320.5 133.5t-133.5 321.5zM339 1455 q0 23 17 40l80 80q17 17 40 17t40 -17l262 -262q17 -17 17 -40t-17 -40l-80 -80q-17 -17 -40 -17t-40 17l-262 262q-17 17 -17 40zM342 682h682q0 94 -66.5 160.5t-160.5 66.5h-228q-94 0 -160.5 -66.5t-66.5 -160.5z" />
<glyph unicode="&#xe9;" d="M115 455v227q0 124 61 229.5t165.5 166.5t227.5 61h127q-18 3 -28 14l-80 80q-17 17 -17 40t17 40l260 262q19 17 41 17t39 -17l80 -80q17 -17 17 -40t-17 -40l-263 -262q-11 -11 -28 -14h80q123 0 227.5 -61t165.5 -166.5t61 -229.5v-170q0 -25 -16 -41t-41 -16h-852 q0 -94 66.5 -161t160.5 -67h625q25 0 41 -16t16 -41v-113q0 -25 -16 -41t-41 -16h-625q-187 0 -320.5 133.5t-133.5 321.5zM342 682h682q0 94 -66.5 160.5t-160.5 66.5h-228q-94 0 -160.5 -66.5t-66.5 -160.5z" />
<glyph unicode="&#xea;" d="M115 455v227q0 124 61 229.5t165.5 166.5t227.5 61h228q123 0 227.5 -61t165.5 -166.5t61 -229.5v-170q0 -25 -16 -41t-41 -16h-852q0 -94 66.5 -161t160.5 -67h625q25 0 41 -16t16 -41v-113q0 -25 -16 -41t-41 -16h-625q-187 0 -320.5 133.5t-133.5 321.5zM339 1273 q0 23 17 40l287 286q15 15 39 15q27 0 39 -15l287 -286q17 -17 17 -40t-17 -40l-80 -80q-17 -17 -39 -17t-41 17l-166 166l-166 -166q-17 -17 -40 -17t-40 17l-80 80q-17 17 -17 40zM342 682h682q0 94 -66.5 160.5t-160.5 66.5h-228q-94 0 -160.5 -66.5t-66.5 -160.5z" />
<glyph unicode="&#xeb;" d="M115 455v227q0 124 61 229.5t165.5 166.5t227.5 61h228q123 0 227.5 -61t165.5 -166.5t61 -229.5v-170q0 -25 -16 -41t-41 -16h-852q0 -94 66.5 -161t160.5 -67h625q25 0 41 -16t16 -41v-113q0 -25 -16 -41t-41 -16h-625q-187 0 -320.5 133.5t-133.5 321.5zM342 682h682 q0 94 -66.5 160.5t-160.5 66.5h-228q-94 0 -160.5 -66.5t-66.5 -160.5zM342 1421v115q0 25 16 41t39 16h115q25 0 41 -16t16 -41v-115q0 -23 -16 -39t-41 -16h-115q-23 0 -39 16t-16 39zM797 1421v115q0 25 16 41t41 16h113q25 0 41 -16t16 -41v-115q0 -23 -16 -39t-41 -16 h-113q-25 0 -41 16t-16 39z" />
<glyph unicode="&#xec;" d="M115 57v113q0 25 16 41t39 16h399v682h-172q-23 0 -39 17t-16 41v114q0 24 16 41t39 17h250q-19 4 -29 14l-262 262q-17 17 -17 40t17 40l80 80q17 17 40 17t40 -17l262 -262q17 -17 17 -40t-17 -40l-80 -80q-10 -11 -28 -14h69q24 0 41 -17t17 -41v-854h397q25 0 41 -16 t16 -41v-113q0 -25 -16 -41t-41 -16h-1024q-23 0 -39 16t-16 41z" />
<glyph unicode="&#xed;" d="M115 57v113q0 25 16 41t39 16h399v682h-172q-23 0 -39 17t-16 41v114q0 24 16 41t39 17h299q-18 3 -28 14l-80 80q-17 17 -17 40t17 40l260 262q19 17 41 17t39 -17l80 -80q17 -17 17 -40t-17 -40l-263 -262q-11 -11 -28 -14h22q24 0 41 -17t17 -41v-854h397q25 0 41 -16 t16 -41v-113q0 -25 -16 -41t-41 -16h-1024q-23 0 -39 16t-16 41z" />
<glyph unicode="&#xee;" d="M115 57v113q0 25 16 41t39 16h399v682h-172q-23 0 -39 17t-16 41v114q0 24 16 41t39 17h68q-19 4 -29 14l-80 80q-17 17 -17 40t17 40l287 286q15 15 39 15q27 0 39 -15l287 -286q17 -17 17 -40t-17 -40l-80 -80q-17 -17 -39 -17t-41 17l-166 166l-166 -166 q-10 -10 -29 -14h252q24 0 41 -17t17 -41v-854h397q25 0 41 -16t16 -41v-113q0 -25 -16 -41t-41 -16h-1024q-23 0 -39 16t-16 41z" />
<glyph unicode="&#xef;" d="M115 57v113q0 25 16 41t39 16h399v682h-172q-23 0 -39 17t-16 41v114q0 24 16 41t39 17h342q24 0 41 -17t17 -41v-854h397q25 0 41 -16t16 -41v-113q0 -25 -16 -41t-41 -16h-1024q-23 0 -39 16t-16 41zM342 1421v115q0 25 16 41t39 16h115q25 0 41 -16t16 -41v-115 q0 -23 -16 -39t-41 -16h-115q-23 0 -39 16t-16 39zM797 1421v115q0 25 16 41t41 16h113q25 0 41 -16t16 -41v-115q0 -23 -16 -39t-41 -16h-113q-25 0 -41 16t-16 39z" />
<glyph unicode="&#xf0;" d="M115 455q0 187 133.5 320.5t320.5 133.5h95l-181 183l-164 -164q-19 -17 -40.5 -17t-38.5 17l-80 80q-17 17 -17 39.5t17 39.5l164 164l-164 164q-17 17 -17 40t17 40l80 80q17 17 38.5 17t40.5 -17l166 -166l166 166q17 17 40 17t40 -17l80 -80q17 -17 17 -40t-17 -40 l-168 -166l471 -471q137 -134 137 -323q0 -188 -133.5 -321.5t-320.5 -133.5h-228q-187 0 -320.5 133.5t-133.5 321.5zM342 455q0 -94 66.5 -161t160.5 -67h228q94 0 160.5 67t66.5 161t-66.5 160.5t-160.5 66.5h-228q-94 0 -160.5 -66.5t-66.5 -160.5z" />
<glyph unicode="&#xf1;" d="M115 57v1024q0 24 16 41t39 17h420q-21 52 -21 112q0 46 -33.5 80.5t-80.5 34.5t-80 -34.5t-33 -80.5q0 -23 -17 -40t-40 -17h-115q-23 0 -39 17t-16 40q0 141 99.5 241.5t240.5 100.5t241.5 -100.5t100.5 -241.5q0 -46 33 -79t79 -33t80.5 33.5t34.5 78.5q0 25 16 41.5 t41 16.5h113q25 0 41 -16.5t16 -41.5q0 -77 -32.5 -145.5t-88.5 -116.5q121 -127 121 -307v-625q0 -25 -16 -41t-41 -16h-113q-25 0 -41 16t-16 41v625q0 94 -66.5 160.5t-160.5 66.5h-455v-852q0 -24 -16.5 -40.5t-40.5 -16.5h-115q-23 0 -39 16t-16 41z" />
<glyph unicode="&#xf2;" d="M115 455v227q0 124 61 229.5t165.5 166.5t227.5 61h78q-19 4 -29 14l-262 262q-17 17 -17 40t17 40l80 80q17 17 40 17t40 -17l262 -262q17 -17 17 -40t-17 -40l-80 -80q-10 -11 -28 -14h127q123 0 227.5 -61t165.5 -166.5t61 -229.5v-227q0 -188 -133.5 -321.5 t-320.5 -133.5h-228q-187 0 -320.5 133.5t-133.5 321.5zM342 455q0 -94 66.5 -161t160.5 -67h228q94 0 160.5 67t66.5 161v227q0 94 -66.5 160.5t-160.5 66.5h-228q-94 0 -160.5 -66.5t-66.5 -160.5v-227z" />
<glyph unicode="&#xf3;" d="M115 455v227q0 124 61 229.5t165.5 166.5t227.5 61h127q-18 3 -28 14l-80 80q-17 17 -17 40t17 40l260 262q19 17 41 17t39 -17l80 -80q17 -17 17 -40t-17 -40l-263 -262q-11 -11 -28 -14h80q123 0 227.5 -61t165.5 -166.5t61 -229.5v-227q0 -188 -133.5 -321.5 t-320.5 -133.5h-228q-187 0 -320.5 133.5t-133.5 321.5zM342 455q0 -94 66.5 -161t160.5 -67h228q94 0 160.5 67t66.5 161v227q0 94 -66.5 160.5t-160.5 66.5h-228q-94 0 -160.5 -66.5t-66.5 -160.5v-227z" />
<glyph unicode="&#xf4;" d="M115 455v227q0 124 61 229.5t165.5 166.5t227.5 61h228q123 0 227.5 -61t165.5 -166.5t61 -229.5v-227q0 -188 -133.5 -321.5t-320.5 -133.5h-228q-187 0 -320.5 133.5t-133.5 321.5zM339 1273q0 23 17 40l287 286q15 15 39 15q27 0 39 -15l287 -286q17 -17 17 -40 t-17 -40l-80 -80q-17 -17 -39 -17t-41 17l-166 166l-166 -166q-17 -17 -40 -17t-40 17l-80 80q-17 17 -17 40zM342 455q0 -94 66.5 -161t160.5 -67h228q94 0 160.5 67t66.5 161v227q0 94 -66.5 160.5t-160.5 66.5h-228q-94 0 -160.5 -66.5t-66.5 -160.5v-227z" />
<glyph unicode="&#xf5;" d="M115 455v227q0 124 61 229.5t165.5 166.5t227.5 61h19q-19 55 -19 112q0 46 -33.5 80.5t-80.5 34.5t-80 -34.5t-33 -80.5q0 -23 -17 -40t-40 -17h-115q-23 0 -39 17t-16 40q0 141 99.5 241.5t240.5 100.5t241.5 -100.5t100.5 -241.5q0 -46 33 -79t79 -33t80.5 33.5 t34.5 78.5q0 25 16 41.5t41 16.5h113q25 0 41 -16.5t16 -41.5q0 -77 -32.5 -145.5t-88.5 -116.5q121 -127 121 -307v-227q0 -188 -133.5 -321.5t-320.5 -133.5h-228q-187 0 -320.5 133.5t-133.5 321.5zM342 455q0 -94 66.5 -161t160.5 -67h228q94 0 160.5 67t66.5 161v227 q0 94 -66.5 160.5t-160.5 66.5h-228q-94 0 -160.5 -66.5t-66.5 -160.5v-227z" />
<glyph unicode="&#xf6;" d="M115 455v227q0 124 61 229.5t165.5 166.5t227.5 61h228q123 0 227.5 -61t165.5 -166.5t61 -229.5v-227q0 -188 -133.5 -321.5t-320.5 -133.5h-228q-187 0 -320.5 133.5t-133.5 321.5zM342 455q0 -94 66.5 -161t160.5 -67h228q94 0 160.5 67t66.5 161v227 q0 94 -66.5 160.5t-160.5 66.5h-228q-94 0 -160.5 -66.5t-66.5 -160.5v-227zM342 1421v115q0 25 16 41t39 16h115q25 0 41 -16t16 -41v-115q0 -23 -16 -39t-41 -16h-115q-23 0 -39 16t-16 39zM797 1421v115q0 25 16 41t41 16h113q25 0 41 -16t16 -41v-115q0 -23 -16 -39 t-41 -16h-113q-25 0 -41 16t-16 39z" />
<glyph unicode="&#xf7;" d="M115 739v115q0 23 16 39t39 16h1024q25 0 41 -16t16 -39v-115q0 -24 -16.5 -40.5t-40.5 -16.5h-1024q-23 0 -39 17t-16 40zM569 285v112q0 25 16.5 41.5t41.5 16.5h112q25 0 41.5 -16.5t16.5 -41.5v-112q0 -25 -16.5 -41.5t-41.5 -16.5h-112q-25 0 -41.5 16.5t-16.5 41.5 zM569 1194v115q0 23 16.5 40t41.5 17h112q25 0 41.5 -17t16.5 -40v-115q0 -23 -16.5 -39t-41.5 -16h-112q-25 0 -41.5 16t-16.5 39z" />
<glyph unicode="&#xf8;" d="M115 455v227q0 124 61 229.5t165.5 166.5t227.5 61h228q123 0 227.5 -61t165.5 -166.5t61 -229.5v-227q0 -188 -133.5 -321.5t-320.5 -133.5h-228q-187 0 -320.5 133.5t-133.5 321.5zM342 455q0 -36 8 -60l506 506q-24 8 -59 8h-228q-94 0 -160.5 -66.5t-66.5 -160.5 v-227zM510 238q28 -11 59 -11h228q94 0 160.5 67t66.5 161v227q0 35 -8 59z" />
<glyph unicode="&#xf9;" d="M115 455v626q0 24 16 41t39 17h115q23 0 40 -17.5t17 -40.5v-626q0 -94 66.5 -161t160.5 -67h455v854q0 24 16.5 41t40.5 17h113q24 0 40.5 -17t16.5 -41v-1024q0 -25 -16 -41t-41 -16h-625q-187 0 -320.5 133.5t-133.5 321.5zM339 1455q0 23 17 40l80 80q17 17 40 17 t40 -17l262 -262q17 -17 17 -40t-17 -40l-80 -80q-17 -17 -40 -17t-40 17l-262 262q-17 17 -17 40z" />
<glyph unicode="&#xfa;" d="M115 455v626q0 24 16 41t39 17h115q23 0 40 -17.5t17 -40.5v-626q0 -94 66.5 -161t160.5 -67h455v854q0 24 16.5 41t40.5 17h113q24 0 40.5 -17t16.5 -41v-1024q0 -25 -16 -41t-41 -16h-625q-187 0 -320.5 133.5t-133.5 321.5zM571 1273q0 23 17 40l260 262q19 17 41 17 t39 -17l80 -80q17 -17 17 -40t-17 -40l-263 -262q-17 -17 -38.5 -17t-38.5 17l-80 80q-17 17 -17 40z" />
<glyph unicode="&#xfb;" d="M115 455v626q0 24 16 41t39 17h115q23 0 40 -17.5t17 -40.5v-626q0 -94 66.5 -161t160.5 -67h455v854q0 24 16.5 41t40.5 17h113q24 0 40.5 -17t16.5 -41v-1024q0 -25 -16 -41t-41 -16h-625q-187 0 -320.5 133.5t-133.5 321.5zM339 1273q0 23 17 40l287 286q15 15 39 15 q27 0 39 -15l287 -286q17 -17 17 -40t-17 -40l-80 -80q-17 -17 -39 -17t-41 17l-166 166l-166 -166q-17 -17 -40 -17t-40 17l-80 80q-17 17 -17 40z" />
<glyph unicode="&#xfc;" d="M115 455v626q0 24 16 41t39 17h115q23 0 40 -17.5t17 -40.5v-626q0 -94 66.5 -161t160.5 -67h455v854q0 24 16.5 41t40.5 17h113q24 0 40.5 -17t16.5 -41v-1024q0 -25 -16 -41t-41 -16h-625q-187 0 -320.5 133.5t-133.5 321.5zM342 1421v115q0 25 16 41t39 16h115 q25 0 41 -16t16 -41v-115q0 -23 -16 -39t-41 -16h-115q-23 0 -39 16t-16 39zM797 1421v115q0 25 16 41t41 16h113q25 0 41 -16t16 -41v-115q0 -23 -16 -39t-41 -16h-113q-25 0 -41 16t-16 39z" />
<glyph unicode="&#xfd;" d="M115 -285q0 25 16 41.5t39 16.5h627q94 0 160.5 66.5t66.5 160.5h-455q-187 0 -320.5 133.5t-133.5 321.5v626q0 24 16 41t39 17h115q23 0 40 -17.5t17 -40.5v-626q0 -94 66.5 -161t160.5 -67h455v854q3 25 18 41.5t39 16.5h113q24 0 40.5 -17t16.5 -41v-1081 q0 -188 -133.5 -321.5t-320.5 -133.5h-627q-23 0 -39 16.5t-16 41.5v112zM571 1273q0 23 17 40l260 262q19 17 41 17t39 -17l80 -80q17 -17 17 -40t-17 -40l-263 -262q-17 -17 -38.5 -17t-38.5 17l-80 80q-17 17 -17 40z" />
<glyph unicode="&#xfe;" d="M115 -397v1933q0 25 16 41t39 16h115q24 0 40.5 -16.5t16.5 -40.5v-397h455q123 0 227.5 -61t165.5 -166.5t61 -229.5v-227q0 -188 -133.5 -321.5t-320.5 -133.5h-455v-397q0 -25 -17 -41.5t-40 -16.5h-115q-23 0 -39 16.5t-16 41.5zM342 227h455q94 0 160.5 67t66.5 161 v227q0 94 -66.5 160.5t-160.5 66.5h-455v-682z" />
<glyph unicode="&#xff;" d="M115 -285q0 25 16 41.5t39 16.5h627q94 0 160.5 66.5t66.5 160.5h-455q-187 0 -320.5 133.5t-133.5 321.5v626q0 24 16 41t39 17h115q23 0 40 -17.5t17 -40.5v-626q0 -94 66.5 -161t160.5 -67h455v854q3 25 18 41.5t39 16.5h113q24 0 40.5 -17t16.5 -41v-1081 q0 -188 -133.5 -321.5t-320.5 -133.5h-627q-23 0 -39 16.5t-16 41.5v112zM342 1421v115q0 25 16 41t39 16h115q25 0 41 -16t16 -41v-115q0 -23 -16 -39t-41 -16h-115q-23 0 -39 16t-16 39zM797 1421v115q0 25 16 41t41 16h113q25 0 41 -16t16 -41v-115q0 -23 -16 -39 t-41 -16h-113q-25 0 -41 16t-16 39z" />
<glyph unicode="&#x152;" d="M115 455v684q0 187 133.5 320.5t320.5 133.5h625q25 0 41 -16t16 -41v-115q0 -23 -16 -39t-41 -16h-397v-457h170q25 0 41 -16t16 -39v-115q0 -24 -16.5 -40.5t-40.5 -16.5h-170v-455h397q25 0 41 -16t16 -41v-113q0 -25 -16 -41t-41 -16h-625q-187 0 -320.5 133.5 t-133.5 321.5zM342 455q0 -94 66.5 -161t160.5 -67v1139q-94 0 -160.5 -66.5t-66.5 -160.5v-684z" />
<glyph unicode="&#x153;" d="M115 455v227q0 124 61 229.5t165.5 166.5t227.5 61h228q123 0 227.5 -61t165.5 -166.5t61 -229.5v-170q0 -25 -16 -41t-41 -16h-397v-228h397q25 0 41 -16t16 -41v-113q0 -25 -16 -41t-41 -16h-625q-187 0 -320.5 133.5t-133.5 321.5zM342 455q0 -94 66.5 -161t160.5 -67 v682q-94 0 -160.5 -66.5t-66.5 -160.5v-227zM797 682h227q0 94 -66.5 160.5t-160.5 66.5v-227z" />
<glyph unicode="&#x178;" d="M115 1231v305q0 25 16 41t39 16h115q24 0 40.5 -16.5t16.5 -40.5v-242l340 -340l342 340v242q0 25 16 41t41 16h113q25 0 41 -16t16 -41v-305q0 -25 -18 -43l-436 -434v-697q0 -25 -16.5 -41t-41.5 -16h-112q-25 0 -41.5 16t-16.5 41v697l-438 434q-16 19 -16 43z M342 1878v113q0 25 16 41t39 16h115q25 0 41 -16t16 -41v-113q0 -25 -16 -41t-41 -16h-115q-23 0 -39 16t-16 41zM797 1878v113q0 25 16 41t41 16h113q25 0 41 -16t16 -41v-113q0 -25 -16 -41t-41 -16h-113q-25 0 -41 16t-16 41z" />
<glyph unicode="&#x2c6;" d="M339 1273q0 23 17 40l287 286q15 15 39 15q27 0 39 -15l287 -286q17 -17 17 -40t-17 -40l-80 -80q-17 -17 -39 -17t-41 17l-166 166l-166 -166q-17 -17 -40 -17t-40 17l-80 80q-17 17 -17 40z" />
<glyph unicode="&#x2dc;" d="M115 1251q0 141 99.5 241.5t240.5 100.5t241.5 -100.5t100.5 -241.5q0 -46 33 -79t79 -33t80.5 33.5t34.5 78.5q0 25 16 41.5t41 16.5h113q25 0 41 -16.5t16 -41.5q0 -141 -100 -241.5t-242 -100.5q-141 0 -240.5 100.5t-99.5 241.5q0 46 -33.5 80.5t-80.5 34.5 t-80 -34.5t-33 -80.5q0 -23 -17 -40t-40 -17h-115q-23 0 -39 17t-16 40z" />
<glyph unicode="&#x2000;" horiz-adv-x="1034" />
<glyph unicode="&#x2001;" horiz-adv-x="2068" />
<glyph unicode="&#x2002;" horiz-adv-x="1034" />
<glyph unicode="&#x2003;" horiz-adv-x="2068" />
<glyph unicode="&#x2004;" horiz-adv-x="689" />
<glyph unicode="&#x2005;" horiz-adv-x="517" />
<glyph unicode="&#x2006;" horiz-adv-x="344" />
<glyph unicode="&#x2007;" horiz-adv-x="344" />
<glyph unicode="&#x2008;" horiz-adv-x="258" />
<glyph unicode="&#x2009;" horiz-adv-x="413" />
<glyph unicode="&#x200a;" horiz-adv-x="114" />
<glyph unicode="&#x2010;" d="M115 512v115q0 23 16 39t39 16h1024q25 0 41 -16t16 -39v-115q0 -25 -16 -41t-41 -16h-1024q-23 0 -39 16t-16 41z" />
<glyph unicode="&#x2011;" d="M115 512v115q0 23 16 39t39 16h1024q25 0 41 -16t16 -39v-115q0 -25 -16 -41t-41 -16h-1024q-23 0 -39 16t-16 41z" />
<glyph unicode="&#x2012;" d="M115 512v115q0 23 16 39t39 16h1024q25 0 41 -16t16 -39v-115q0 -25 -16 -41t-41 -16h-1024q-23 0 -39 16t-16 41z" />
<glyph unicode="&#x2013;" d="M115 512v115q0 23 16 39t39 16h1024q25 0 41 -16t16 -39v-115q0 -25 -16 -41t-41 -16h-1024q-23 0 -39 16t-16 41z" />
<glyph unicode="&#x2014;" d="M115 512v115q0 23 16 39t39 16h1024q25 0 41 -16t16 -39v-115q0 -25 -16 -41t-41 -16h-1024q-23 0 -39 16t-16 41z" />
<glyph unicode="&#x2018;" d="M569 739v512q0 141 99.5 241.5t240.5 100.5h58q25 0 41 -16t16 -41v-115q0 -23 -16 -39t-41 -16h-58q-45 0 -78.5 -34.5t-33.5 -80.5v-112h170q24 0 40.5 -17t16.5 -41v-342q0 -24 -16.5 -40.5t-40.5 -16.5h-340q-25 0 -41.5 17t-16.5 40z" />
<glyph unicode="&#x2019;" d="M342 739v115q0 23 16 39t39 16h58q46 0 80 34.5t34 80.5v115h-172q-23 0 -39 16t-16 39v342q0 25 16 41t39 16h342q25 0 41.5 -16t16.5 -41v-512q0 -141 -100.5 -241.5t-241.5 -100.5h-58q-23 0 -39 17t-16 40z" />
<glyph unicode="&#x201a;" d="M342 57v340q0 25 16 41.5t39 16.5h342q25 0 41.5 -16.5t16.5 -41.5v-512q0 -141 -100.5 -240.5t-241.5 -99.5h-58q-23 0 -39 16.5t-16 41.5v112q0 25 16 41.5t39 16.5h58q46 0 80 33t34 79v115h-172q-23 0 -39 16t-16 41z" />
<glyph unicode="&#x201c;" d="M115 739v512q0 141 99.5 241.5t240.5 100.5h57q25 0 41 -16t16 -41v-115q0 -23 -16 -39t-41 -16h-57q-46 0 -79.5 -34.5t-33.5 -80.5v-112h170q24 0 40.5 -17t16.5 -41v-342q0 -24 -16.5 -40.5t-40.5 -16.5h-342q-23 0 -39 17t-16 40zM797 739v512q0 141 100 241.5 t242 100.5h55q25 0 41 -16t16 -41v-115q0 -23 -16 -39t-41 -16h-55q-46 0 -80.5 -34.5t-34.5 -80.5v-112h170q24 0 40.5 -17t16.5 -41v-342q0 -24 -16.5 -40.5t-40.5 -16.5h-340q-24 0 -40.5 16.5t-16.5 40.5z" />
<glyph unicode="&#x201d;" d="M115 739v115q0 23 16 39t39 16h57q46 0 80.5 34.5t34.5 80.5v115h-172q-23 0 -39 16t-16 39v342q0 25 16 41t39 16h342q25 0 41 -16t16 -41v-512q0 -141 -100.5 -241.5t-241.5 -100.5h-57q-23 0 -39 17t-16 40zM797 739v115q0 23 16 39t41 16h55q46 0 80.5 34.5 t34.5 80.5v115h-170q-25 0 -41 16t-16 39v342q0 25 16 41t41 16h340q25 0 41 -16t16 -41v-512q0 -141 -100 -241.5t-242 -100.5h-55q-24 0 -40.5 16.5t-16.5 40.5z" />
<glyph unicode="&#x201e;" d="M115 57v340q0 25 16 41.5t39 16.5h342q25 0 41 -16.5t16 -41.5v-512q0 -141 -100.5 -240.5t-241.5 -99.5h-57q-23 0 -39 16.5t-16 41.5v112q0 25 16 41.5t39 16.5h57q46 0 80.5 33.5t34.5 78.5v115h-172q-23 0 -39 16t-16 41zM797 57v340q0 25 16 41.5t41 16.5h340 q25 0 41 -16.5t16 -41.5v-512q0 -141 -100 -240.5t-242 -99.5h-55q-25 0 -41 16.5t-16 41.5v112q0 25 16 41.5t41 16.5h55q46 0 80.5 33.5t34.5 78.5v115h-170q-25 0 -41 16t-16 41z" />
<glyph unicode="&#x2022;" d="M569 739v342q0 24 17 41t41 17h340q24 0 40.5 -17t16.5 -41v-342q0 -24 -16.5 -40.5t-40.5 -16.5h-340q-25 0 -41.5 17t-16.5 40z" />
<glyph unicode="&#x2026;" d="M115 57v340q0 25 16 41.5t39 16.5h115q23 0 40 -16.5t17 -41.5v-340q0 -24 -16.5 -40.5t-40.5 -16.5h-115q-23 0 -39 16t-16 41zM569 57v340q0 25 16.5 41.5t41.5 16.5h112q25 0 41.5 -16.5t16.5 -41.5v-340q0 -25 -16.5 -41t-41.5 -16h-112q-25 0 -41.5 16t-16.5 41z M1024 57v340q0 25 16 41.5t41 16.5h113q25 0 41 -16.5t16 -41.5v-340q0 -25 -16 -41t-41 -16h-113q-25 0 -41 16t-16 41z" />
<glyph unicode="&#x202f;" horiz-adv-x="413" />
<glyph unicode="&#x2039;" d="M322 797q0 24 12 39l743 741q17 17 39 17t39 -17l80 -80q17 -17 17 -40t-17 -40l-621 -620l621 -621q17 -19 17 -41t-17 -39l-80 -80q-17 -17 -39 -17t-39 17l-743 742q-12 12 -12 39z" />
<glyph unicode="&#x203a;" d="M339 135q0 22 17 41l623 621l-623 620q-17 17 -17 40t17 40l80 80q17 17 40 17t40 -17l741 -741q15 -15 15 -39q0 -27 -15 -39l-741 -742q-17 -17 -40 -17t-40 17l-80 80q-17 17 -17 39z" />
<glyph unicode="&#x205f;" horiz-adv-x="517" />
<glyph unicode="&#x20ac;" d="M115 512v115q0 23 16 39t39 16h172v227h-172q-23 0 -39 17t-16 41v114q0 24 16 41t39 17h172q0 187 133.5 320.5t321.5 133.5h397q25 0 41 -16t16 -41v-115q0 -23 -16 -39t-41 -16h-397q-94 0 -161 -66.5t-67 -160.5h398q24 0 40.5 -17t16.5 -41v-114q0 -24 -16.5 -41 t-40.5 -17h-398v-227h170q25 0 41.5 -16t16.5 -39v-115q0 -25 -16.5 -41t-41.5 -16h-170q0 -94 67 -161t161 -67h397q25 0 41 -16t16 -41v-113q0 -25 -16 -41t-41 -16h-397q-187 0 -321 134t-134 321h-172q-23 0 -39 16t-16 41z" />
<glyph unicode="&#x2122;" d="M115 57v797q0 23 16 39t39 16h115q23 0 40 -16t17 -39v-12l340 -342l342 342v10q0 25 16 41t41 16h113q25 0 41 -16t16 -39v-797q0 -25 -16 -41t-41 -16h-113q-25 0 -41 16t-16 41v467l-227 -229v-238q0 -25 -16.5 -41t-41.5 -16h-112q-25 0 -41.5 16t-16.5 41v238 l-227 229v-467q0 -24 -16.5 -40.5t-40.5 -16.5h-115q-23 0 -39 16t-16 41zM115 1421v115q0 25 16 41t39 16h1024q25 0 41 -16t16 -41v-115q0 -23 -16 -39t-41 -16h-397v-627q0 -23 -16.5 -40t-41.5 -17h-112q-25 0 -41.5 17t-16.5 40v627h-399q-23 0 -39 16t-16 39z" />
<glyph unicode="&#x25fc;" horiz-adv-x="1136" d="M0 0v1137h1137v-1137h-1137z" />
<glyph unicode="&#xfb01;" d="M115 57v1082q0 187 133.5 320.5t320.5 133.5h398q25 0 41 -16t16 -41v-115q0 -23 -16 -39t-41 -16h-398q-94 0 -160.5 -66.5t-66.5 -160.5h625q24 0 40.5 -17t16.5 -41v-854h170q25 0 41 -16t16 -41v-113q0 -25 -16 -41t-41 -16h-567q-25 0 -41.5 16t-16.5 41v113 q0 25 16.5 41t41.5 16h170v682h-455v-852q0 -24 -16.5 -40.5t-40.5 -16.5h-115q-23 0 -39 16t-16 41z" />
<glyph unicode="&#xfb02;" d="M111 57v1082q0 123 61 227.5t166 165.5t229 61h400q25 0 41 -16t16 -41v-1309h170q25 0 41 -16t16 -41v-113q0 -25 -16 -41t-41 -16h-567q-25 0 -41.5 16t-16.5 41v113q0 25 16.5 41t41.5 16h170v1139h-230q-94 0 -160.5 -66.5t-66.5 -160.5h170q23 0 40 -17.5t17 -40.5 v-114q0 -23 -17 -40.5t-40 -17.5h-170v-852q0 -24 -16.5 -40.5t-40.5 -16.5h-115q-24 0 -40.5 16.5t-16.5 40.5z" />
</font>
</defs>
</svg>
